<mxfile host="app.diagrams.net" modified="2024-03-29T09:39:39.196Z" agent="Mozilla/5.0 (Windows NT 10.0; Win64; x64) AppleWebKit/537.36 (KHTML, like Gecko) Chrome/122.0.0.0 Safari/537.36 Edg/122.0.0.0" etag="gQDp46E5_M-ZUO0eCUXB" version="24.1.0" type="device">
  <diagram name="Page-1" id="90a13364-a465-7bf4-72fc-28e22215d7a0">
    <mxGraphModel dx="733" dy="325" grid="1" gridSize="3" guides="1" tooltips="1" connect="1" arrows="1" fold="1" page="1" pageScale="1.5" pageWidth="1169" pageHeight="826" background="none" math="0" shadow="0">
      <root>
        <mxCell id="0" style=";html=1;" />
        <mxCell id="1" style=";html=1;" parent="0" />
        <mxCell id="2RkcyuEuWD_7XSWE0uLs-79" value="" style="endArrow=classic;html=1;rounded=0;labelBackgroundColor=none;strokeColor=#A8201A;fontColor=default;" parent="1" edge="1">
          <mxGeometry relative="1" as="geometry">
            <mxPoint x="1366" y="652" as="sourcePoint" />
            <mxPoint x="1446" y="651.44" as="targetPoint" />
            <Array as="points">
              <mxPoint x="1446" y="651.44" />
            </Array>
          </mxGeometry>
        </mxCell>
        <mxCell id="2RkcyuEuWD_7XSWE0uLs-80" value="&lt;font color=&quot;#0066cc&quot;&gt;24bit Data_in&lt;/font&gt;" style="edgeLabel;resizable=0;html=1;;align=left;verticalAlign=bottom;labelBackgroundColor=none;fontColor=#143642;" parent="2RkcyuEuWD_7XSWE0uLs-79" connectable="0" vertex="1">
          <mxGeometry x="-1" relative="1" as="geometry">
            <mxPoint as="offset" />
          </mxGeometry>
        </mxCell>
        <mxCell id="2RkcyuEuWD_7XSWE0uLs-82" value="" style="endArrow=classic;html=1;rounded=0;labelBackgroundColor=none;strokeColor=#A8201A;fontColor=default;" parent="1" edge="1">
          <mxGeometry relative="1" as="geometry">
            <mxPoint x="1446" y="792" as="sourcePoint" />
            <mxPoint x="1366" y="792" as="targetPoint" />
            <Array as="points">
              <mxPoint x="1446" y="792" />
            </Array>
          </mxGeometry>
        </mxCell>
        <mxCell id="2RkcyuEuWD_7XSWE0uLs-83" value="&lt;font color=&quot;#0066cc&quot;&gt;24bit Data&lt;/font&gt;" style="edgeLabel;resizable=0;html=1;;align=left;verticalAlign=bottom;labelBackgroundColor=none;fontColor=#143642;" parent="2RkcyuEuWD_7XSWE0uLs-82" connectable="0" vertex="1">
          <mxGeometry x="-1" relative="1" as="geometry">
            <mxPoint x="-60" as="offset" />
          </mxGeometry>
        </mxCell>
        <mxCell id="2RkcyuEuWD_7XSWE0uLs-92" value="" style="endArrow=classic;html=1;rounded=0;labelBackgroundColor=none;strokeColor=#A8201A;fontColor=default;" parent="1" edge="1">
          <mxGeometry relative="1" as="geometry">
            <mxPoint x="296" y="658" as="sourcePoint" />
            <mxPoint x="376" y="658" as="targetPoint" />
            <Array as="points">
              <mxPoint x="296" y="658" />
            </Array>
          </mxGeometry>
        </mxCell>
        <mxCell id="2RkcyuEuWD_7XSWE0uLs-93" value="&lt;font color=&quot;#0066cc&quot;&gt;32bit&amp;nbsp; &amp;nbsp; &amp;nbsp; A&lt;/font&gt;" style="edgeLabel;resizable=0;html=1;;align=left;verticalAlign=bottom;labelBackgroundColor=none;fontColor=#143642;" parent="2RkcyuEuWD_7XSWE0uLs-92" connectable="0" vertex="1">
          <mxGeometry x="-1" relative="1" as="geometry">
            <mxPoint x="10" as="offset" />
          </mxGeometry>
        </mxCell>
        <mxCell id="2RkcyuEuWD_7XSWE0uLs-95" value="" style="endArrow=classic;html=1;rounded=0;labelBackgroundColor=none;strokeColor=#A8201A;fontColor=default;" parent="1" edge="1">
          <mxGeometry relative="1" as="geometry">
            <mxPoint x="296" y="798" as="sourcePoint" />
            <mxPoint x="376" y="798" as="targetPoint" />
            <Array as="points">
              <mxPoint x="296" y="798" />
            </Array>
          </mxGeometry>
        </mxCell>
        <mxCell id="2RkcyuEuWD_7XSWE0uLs-96" value="&lt;font color=&quot;#0066cc&quot;&gt;32bit&amp;nbsp; &amp;nbsp; &amp;nbsp; B&lt;/font&gt;" style="edgeLabel;resizable=0;html=1;;align=left;verticalAlign=bottom;labelBackgroundColor=none;fontColor=#143642;" parent="2RkcyuEuWD_7XSWE0uLs-95" connectable="0" vertex="1">
          <mxGeometry x="-1" relative="1" as="geometry">
            <mxPoint x="10" as="offset" />
          </mxGeometry>
        </mxCell>
        <mxCell id="2RkcyuEuWD_7XSWE0uLs-97" value="" style="endArrow=classic;html=1;rounded=0;labelBackgroundColor=none;strokeColor=#A8201A;fontColor=default;" parent="1" edge="1">
          <mxGeometry relative="1" as="geometry">
            <mxPoint x="396" y="897.9999999999999" as="sourcePoint" />
            <mxPoint x="396" y="870.91" as="targetPoint" />
            <Array as="points" />
          </mxGeometry>
        </mxCell>
        <mxCell id="2RkcyuEuWD_7XSWE0uLs-98" value="&lt;font color=&quot;#0066cc&quot;&gt;clk&lt;/font&gt;" style="edgeLabel;resizable=0;html=1;;align=left;verticalAlign=bottom;rotation=0;labelBackgroundColor=none;fontColor=#143642;" parent="2RkcyuEuWD_7XSWE0uLs-97" connectable="0" vertex="1">
          <mxGeometry x="-1" relative="1" as="geometry">
            <mxPoint x="-10" y="15" as="offset" />
          </mxGeometry>
        </mxCell>
        <mxCell id="2RkcyuEuWD_7XSWE0uLs-99" value="" style="endArrow=classic;html=1;rounded=0;labelBackgroundColor=none;strokeColor=#A8201A;fontColor=default;" parent="1" edge="1">
          <mxGeometry relative="1" as="geometry">
            <mxPoint x="426" y="897.9999999999999" as="sourcePoint" />
            <mxPoint x="426" y="870.91" as="targetPoint" />
            <Array as="points" />
          </mxGeometry>
        </mxCell>
        <mxCell id="2RkcyuEuWD_7XSWE0uLs-100" value="&lt;font color=&quot;#0066cc&quot;&gt;preset&lt;/font&gt;" style="edgeLabel;resizable=0;html=1;;align=left;verticalAlign=bottom;rotation=0;labelBackgroundColor=none;fontColor=#143642;" parent="2RkcyuEuWD_7XSWE0uLs-99" connectable="0" vertex="1">
          <mxGeometry x="-1" relative="1" as="geometry">
            <mxPoint x="-10" y="15" as="offset" />
          </mxGeometry>
        </mxCell>
        <mxCell id="2RkcyuEuWD_7XSWE0uLs-101" value="" style="endArrow=classic;html=1;rounded=0;labelBackgroundColor=none;strokeColor=#A8201A;fontColor=default;" parent="1" edge="1">
          <mxGeometry relative="1" as="geometry">
            <mxPoint x="466" y="897.9999999999999" as="sourcePoint" />
            <mxPoint x="466" y="870.91" as="targetPoint" />
            <Array as="points" />
          </mxGeometry>
        </mxCell>
        <mxCell id="2RkcyuEuWD_7XSWE0uLs-102" value="&lt;font color=&quot;#0066cc&quot;&gt;clear&lt;/font&gt;" style="edgeLabel;resizable=0;html=1;;align=left;verticalAlign=bottom;rotation=0;labelBackgroundColor=none;fontColor=#143642;" parent="2RkcyuEuWD_7XSWE0uLs-101" connectable="0" vertex="1">
          <mxGeometry x="-1" relative="1" as="geometry">
            <mxPoint x="-10" y="15" as="offset" />
          </mxGeometry>
        </mxCell>
        <mxCell id="2RkcyuEuWD_7XSWE0uLs-103" value="" style="endArrow=classic;html=1;rounded=0;labelBackgroundColor=none;strokeColor=#A8201A;fontColor=default;" parent="1" edge="1">
          <mxGeometry relative="1" as="geometry">
            <mxPoint x="526" y="897.9999999999999" as="sourcePoint" />
            <mxPoint x="526" y="870.91" as="targetPoint" />
            <Array as="points" />
          </mxGeometry>
        </mxCell>
        <mxCell id="2RkcyuEuWD_7XSWE0uLs-104" value="&lt;font color=&quot;#0066cc&quot;&gt;4bit sel&lt;/font&gt;" style="edgeLabel;resizable=0;html=1;;align=left;verticalAlign=bottom;rotation=0;labelBackgroundColor=none;fontColor=#143642;" parent="2RkcyuEuWD_7XSWE0uLs-103" connectable="0" vertex="1">
          <mxGeometry x="-1" relative="1" as="geometry">
            <mxPoint x="-20" y="16" as="offset" />
          </mxGeometry>
        </mxCell>
        <mxCell id="2RkcyuEuWD_7XSWE0uLs-105" value="" style="endArrow=classic;html=1;rounded=0;labelBackgroundColor=none;strokeColor=#A8201A;fontColor=default;" parent="1" edge="1">
          <mxGeometry relative="1" as="geometry">
            <mxPoint x="496" y="934" as="sourcePoint" />
            <mxPoint x="496" y="870" as="targetPoint" />
            <Array as="points">
              <mxPoint x="496" y="934" />
            </Array>
          </mxGeometry>
        </mxCell>
        <mxCell id="2RkcyuEuWD_7XSWE0uLs-106" value="&lt;font color=&quot;#0066cc&quot;&gt;Trig&lt;/font&gt;" style="edgeLabel;resizable=0;html=1;;align=left;verticalAlign=bottom;labelBackgroundColor=none;fontColor=#143642;" parent="2RkcyuEuWD_7XSWE0uLs-105" connectable="0" vertex="1">
          <mxGeometry x="-1" relative="1" as="geometry">
            <mxPoint x="-10" y="17" as="offset" />
          </mxGeometry>
        </mxCell>
        <mxCell id="2RkcyuEuWD_7XSWE0uLs-107" value="" style="endArrow=classic;html=1;rounded=0;labelBackgroundColor=none;strokeColor=#A8201A;fontColor=default;" parent="1" edge="1">
          <mxGeometry relative="1" as="geometry">
            <mxPoint x="546" y="608" as="sourcePoint" />
            <mxPoint x="626" y="608" as="targetPoint" />
            <Array as="points">
              <mxPoint x="546" y="608" />
            </Array>
          </mxGeometry>
        </mxCell>
        <mxCell id="2RkcyuEuWD_7XSWE0uLs-108" value="&lt;font color=&quot;#0066cc&quot;&gt;greater_flag&lt;/font&gt;" style="edgeLabel;resizable=0;html=1;;align=left;verticalAlign=bottom;labelBackgroundColor=none;fontColor=#143642;" parent="2RkcyuEuWD_7XSWE0uLs-107" connectable="0" vertex="1">
          <mxGeometry x="-1" relative="1" as="geometry">
            <mxPoint x="10" as="offset" />
          </mxGeometry>
        </mxCell>
        <mxCell id="2RkcyuEuWD_7XSWE0uLs-111" value="" style="endArrow=classic;html=1;rounded=0;labelBackgroundColor=none;strokeColor=#A8201A;fontColor=default;" parent="1" edge="1">
          <mxGeometry relative="1" as="geometry">
            <mxPoint x="546" y="638" as="sourcePoint" />
            <mxPoint x="626" y="638" as="targetPoint" />
            <Array as="points">
              <mxPoint x="546" y="638" />
            </Array>
          </mxGeometry>
        </mxCell>
        <mxCell id="2RkcyuEuWD_7XSWE0uLs-112" value="&lt;font color=&quot;#0066cc&quot;&gt;equal_flag&lt;/font&gt;" style="edgeLabel;resizable=0;html=1;;align=left;verticalAlign=bottom;labelBackgroundColor=none;fontColor=#143642;" parent="2RkcyuEuWD_7XSWE0uLs-111" connectable="0" vertex="1">
          <mxGeometry x="-1" relative="1" as="geometry">
            <mxPoint x="10" as="offset" />
          </mxGeometry>
        </mxCell>
        <mxCell id="2RkcyuEuWD_7XSWE0uLs-113" value="" style="endArrow=classic;html=1;rounded=0;labelBackgroundColor=none;strokeColor=#A8201A;fontColor=default;" parent="1" edge="1">
          <mxGeometry relative="1" as="geometry">
            <mxPoint x="546" y="668" as="sourcePoint" />
            <mxPoint x="626" y="668" as="targetPoint" />
            <Array as="points">
              <mxPoint x="546" y="668" />
            </Array>
          </mxGeometry>
        </mxCell>
        <mxCell id="2RkcyuEuWD_7XSWE0uLs-114" value="&lt;font color=&quot;#0066cc&quot;&gt;smaller_flag&lt;/font&gt;" style="edgeLabel;resizable=0;html=1;;align=left;verticalAlign=bottom;labelBackgroundColor=none;fontColor=#143642;" parent="2RkcyuEuWD_7XSWE0uLs-113" connectable="0" vertex="1">
          <mxGeometry x="-1" relative="1" as="geometry">
            <mxPoint x="10" as="offset" />
          </mxGeometry>
        </mxCell>
        <mxCell id="2RkcyuEuWD_7XSWE0uLs-115" value="" style="endArrow=classic;html=1;rounded=0;labelBackgroundColor=none;strokeColor=#A8201A;fontColor=default;entryX=1;entryY=0.519;entryDx=0;entryDy=0;entryPerimeter=0;" parent="1" edge="1">
          <mxGeometry relative="1" as="geometry">
            <mxPoint x="546" y="758" as="sourcePoint" />
            <mxPoint x="646" y="757.9800000000002" as="targetPoint" />
            <Array as="points">
              <mxPoint x="546" y="758" />
            </Array>
          </mxGeometry>
        </mxCell>
        <mxCell id="2RkcyuEuWD_7XSWE0uLs-116" value="&lt;font color=&quot;#0066cc&quot;&gt;32bit output&lt;/font&gt;" style="edgeLabel;resizable=0;html=1;;align=left;verticalAlign=bottom;labelBackgroundColor=none;fontColor=#143642;" parent="2RkcyuEuWD_7XSWE0uLs-115" connectable="0" vertex="1">
          <mxGeometry x="-1" relative="1" as="geometry">
            <mxPoint x="30" as="offset" />
          </mxGeometry>
        </mxCell>
        <mxCell id="2RkcyuEuWD_7XSWE0uLs-117" value="" style="endArrow=classic;html=1;rounded=0;labelBackgroundColor=none;strokeColor=#A8201A;fontColor=default;" parent="1" edge="1">
          <mxGeometry relative="1" as="geometry">
            <mxPoint x="546" y="838" as="sourcePoint" />
            <mxPoint x="626" y="838" as="targetPoint" />
            <Array as="points">
              <mxPoint x="546" y="838" />
            </Array>
          </mxGeometry>
        </mxCell>
        <mxCell id="2RkcyuEuWD_7XSWE0uLs-118" value="&lt;font color=&quot;#0066cc&quot;&gt;ready_flag I&lt;/font&gt;" style="edgeLabel;resizable=0;html=1;;align=left;verticalAlign=bottom;labelBackgroundColor=none;fontColor=#143642;" parent="2RkcyuEuWD_7XSWE0uLs-117" connectable="0" vertex="1">
          <mxGeometry x="-1" relative="1" as="geometry">
            <mxPoint x="10" as="offset" />
          </mxGeometry>
        </mxCell>
        <mxCell id="2RkcyuEuWD_7XSWE0uLs-121" value="" style="endArrow=none;html=1;rounded=0;jumpSize=7;strokeWidth=1;targetPerimeterSpacing=11;sourcePerimeterSpacing=-1;labelBackgroundColor=none;strokeColor=#A8201A;fontColor=default;" parent="1" edge="1">
          <mxGeometry width="50" height="50" relative="1" as="geometry">
            <mxPoint x="516" y="898" as="sourcePoint" />
            <mxPoint x="536" y="880" as="targetPoint" />
            <Array as="points" />
          </mxGeometry>
        </mxCell>
        <mxCell id="2RkcyuEuWD_7XSWE0uLs-122" value="" style="endArrow=none;html=1;rounded=0;jumpSize=7;strokeWidth=1;targetPerimeterSpacing=11;sourcePerimeterSpacing=-1;labelBackgroundColor=none;strokeColor=#A8201A;fontColor=default;" parent="1" edge="1">
          <mxGeometry width="50" height="50" relative="1" as="geometry">
            <mxPoint x="556" y="766" as="sourcePoint" />
            <mxPoint x="576" y="750" as="targetPoint" />
            <Array as="points" />
          </mxGeometry>
        </mxCell>
        <mxCell id="2RkcyuEuWD_7XSWE0uLs-152" value="Reg&lt;div&gt;Control&lt;/div&gt;" style="whiteSpace=wrap;html=1;shadow=1;fontSize=18;fillColor=#FAE5C7;strokeColor=#0F8B8D;labelBackgroundColor=none;fontColor=#143642;" parent="1" vertex="1">
          <mxGeometry x="788" y="468" width="80" height="252" as="geometry" />
        </mxCell>
        <mxCell id="2RkcyuEuWD_7XSWE0uLs-153" value="" style="endArrow=classic;html=1;rounded=0;labelBackgroundColor=none;strokeColor=#A8201A;fontColor=default;" parent="1" edge="1">
          <mxGeometry relative="1" as="geometry">
            <mxPoint x="968" y="490" as="sourcePoint" />
            <mxPoint x="868" y="490.00000000000006" as="targetPoint" />
            <Array as="points" />
          </mxGeometry>
        </mxCell>
        <mxCell id="2RkcyuEuWD_7XSWE0uLs-154" value="&lt;font color=&quot;#0066cc&quot;&gt;Ram_Data&amp;nbsp;&lt;/font&gt;" style="edgeLabel;resizable=0;html=1;;align=left;verticalAlign=bottom;labelBackgroundColor=none;fontColor=#143642;" parent="2RkcyuEuWD_7XSWE0uLs-153" connectable="0" vertex="1">
          <mxGeometry x="-1" relative="1" as="geometry">
            <mxPoint x="-70" as="offset" />
          </mxGeometry>
        </mxCell>
        <mxCell id="2RkcyuEuWD_7XSWE0uLs-155" value="" style="endArrow=classic;html=1;rounded=0;labelBackgroundColor=none;strokeColor=#A8201A;fontColor=default;" parent="1" edge="1">
          <mxGeometry relative="1" as="geometry">
            <mxPoint x="788" y="490.00000000000006" as="sourcePoint" />
            <mxPoint x="698" y="490" as="targetPoint" />
            <Array as="points">
              <mxPoint x="788" y="490.00000000000006" />
            </Array>
          </mxGeometry>
        </mxCell>
        <mxCell id="2RkcyuEuWD_7XSWE0uLs-156" value="&lt;font color=&quot;#0066cc&quot;&gt;reg_Data&lt;/font&gt;" style="edgeLabel;resizable=0;html=1;;align=left;verticalAlign=bottom;labelBackgroundColor=none;fontColor=#143642;" parent="2RkcyuEuWD_7XSWE0uLs-155" connectable="0" vertex="1">
          <mxGeometry x="-1" relative="1" as="geometry">
            <mxPoint x="-70" as="offset" />
          </mxGeometry>
        </mxCell>
        <mxCell id="2RkcyuEuWD_7XSWE0uLs-159" value="" style="endArrow=none;html=1;rounded=0;labelBackgroundColor=none;strokeColor=#A8201A;fontColor=default;" parent="1" edge="1">
          <mxGeometry width="50" height="50" relative="1" as="geometry">
            <mxPoint x="1376" y="802" as="sourcePoint" />
            <mxPoint x="1386" y="782" as="targetPoint" />
            <Array as="points">
              <mxPoint x="1376" y="802" />
            </Array>
          </mxGeometry>
        </mxCell>
        <mxCell id="2RkcyuEuWD_7XSWE0uLs-161" value="" style="endArrow=none;html=1;rounded=0;labelBackgroundColor=none;strokeColor=#A8201A;fontColor=default;" parent="1" edge="1">
          <mxGeometry width="50" height="50" relative="1" as="geometry">
            <mxPoint x="1426" y="662" as="sourcePoint" />
            <mxPoint x="1436" y="642" as="targetPoint" />
            <Array as="points">
              <mxPoint x="1426" y="662" />
            </Array>
          </mxGeometry>
        </mxCell>
        <mxCell id="2RkcyuEuWD_7XSWE0uLs-162" value="" style="endArrow=classic;html=1;rounded=0;labelBackgroundColor=none;strokeColor=#A8201A;fontColor=default;" parent="1" edge="1">
          <mxGeometry relative="1" as="geometry">
            <mxPoint x="868" y="530" as="sourcePoint" />
            <mxPoint x="968" y="530" as="targetPoint" />
            <Array as="points" />
          </mxGeometry>
        </mxCell>
        <mxCell id="2RkcyuEuWD_7XSWE0uLs-163" value="&lt;font color=&quot;#0066cc&quot;&gt;Ram_Data_in&lt;/font&gt;" style="edgeLabel;resizable=0;html=1;;align=left;verticalAlign=bottom;labelBackgroundColor=none;fontColor=#143642;" parent="2RkcyuEuWD_7XSWE0uLs-162" connectable="0" vertex="1">
          <mxGeometry x="-1" relative="1" as="geometry">
            <mxPoint x="20" as="offset" />
          </mxGeometry>
        </mxCell>
        <mxCell id="2RkcyuEuWD_7XSWE0uLs-165" value="" style="endArrow=none;html=1;rounded=0;labelBackgroundColor=none;strokeColor=#A8201A;fontColor=default;" parent="1" edge="1">
          <mxGeometry width="50" height="50" relative="1" as="geometry">
            <mxPoint x="768" y="500" as="sourcePoint" />
            <mxPoint x="778" y="480" as="targetPoint" />
            <Array as="points">
              <mxPoint x="768" y="500" />
            </Array>
          </mxGeometry>
        </mxCell>
        <mxCell id="2RkcyuEuWD_7XSWE0uLs-166" value="" style="endArrow=none;html=1;rounded=0;labelBackgroundColor=none;strokeColor=#A8201A;fontColor=default;" parent="1" edge="1">
          <mxGeometry width="50" height="50" relative="1" as="geometry">
            <mxPoint x="878" y="540" as="sourcePoint" />
            <mxPoint x="888" y="520" as="targetPoint" />
            <Array as="points">
              <mxPoint x="878" y="540" />
            </Array>
          </mxGeometry>
        </mxCell>
        <mxCell id="2RkcyuEuWD_7XSWE0uLs-167" value="" style="endArrow=none;html=1;rounded=0;labelBackgroundColor=none;strokeColor=#A8201A;fontColor=default;" parent="1" edge="1">
          <mxGeometry width="50" height="50" relative="1" as="geometry">
            <mxPoint x="878" y="500" as="sourcePoint" />
            <mxPoint x="888" y="480" as="targetPoint" />
            <Array as="points">
              <mxPoint x="878" y="500" />
            </Array>
          </mxGeometry>
        </mxCell>
        <mxCell id="2RkcyuEuWD_7XSWE0uLs-172" value="Reg to ALU&lt;div&gt;Control&lt;/div&gt;" style="whiteSpace=wrap;html=1;shadow=1;fontSize=18;fillColor=#FAE5C7;strokeColor=#0F8B8D;labelBackgroundColor=none;fontColor=#143642;" parent="1" vertex="1">
          <mxGeometry x="1146" y="460" width="80" height="140" as="geometry" />
        </mxCell>
        <mxCell id="2RkcyuEuWD_7XSWE0uLs-173" value="" style="endArrow=classic;html=1;rounded=0;labelBackgroundColor=none;strokeColor=#A8201A;fontColor=default;" parent="1" edge="1">
          <mxGeometry relative="1" as="geometry">
            <mxPoint x="1326" y="474.5" as="sourcePoint" />
            <mxPoint x="1226" y="474.50000000000006" as="targetPoint" />
            <Array as="points" />
          </mxGeometry>
        </mxCell>
        <mxCell id="2RkcyuEuWD_7XSWE0uLs-174" value="&lt;span style=&quot;color: rgb(0, 102, 204);&quot;&gt;reg_Data A&lt;/span&gt;" style="edgeLabel;resizable=0;html=1;;align=left;verticalAlign=bottom;labelBackgroundColor=none;fontColor=#143642;" parent="2RkcyuEuWD_7XSWE0uLs-173" connectable="0" vertex="1">
          <mxGeometry x="-1" relative="1" as="geometry">
            <mxPoint x="-70" as="offset" />
          </mxGeometry>
        </mxCell>
        <mxCell id="2RkcyuEuWD_7XSWE0uLs-175" value="" style="endArrow=classic;html=1;rounded=0;labelBackgroundColor=none;strokeColor=#A8201A;fontColor=default;" parent="1" edge="1">
          <mxGeometry relative="1" as="geometry">
            <mxPoint x="1146" y="480.00000000000006" as="sourcePoint" />
            <mxPoint x="1036" y="480" as="targetPoint" />
            <Array as="points">
              <mxPoint x="1146" y="480.00000000000006" />
            </Array>
          </mxGeometry>
        </mxCell>
        <mxCell id="2RkcyuEuWD_7XSWE0uLs-176" value="&lt;font color=&quot;#0066cc&quot;&gt;reg_Data Out I&lt;/font&gt;" style="edgeLabel;resizable=0;html=1;;align=left;verticalAlign=bottom;labelBackgroundColor=none;fontColor=#143642;" parent="2RkcyuEuWD_7XSWE0uLs-175" connectable="0" vertex="1">
          <mxGeometry x="-1" relative="1" as="geometry">
            <mxPoint x="-100" y="-2" as="offset" />
          </mxGeometry>
        </mxCell>
        <mxCell id="2RkcyuEuWD_7XSWE0uLs-182" value="" style="endArrow=none;html=1;rounded=0;labelBackgroundColor=none;strokeColor=#A8201A;fontColor=default;" parent="1" edge="1">
          <mxGeometry width="50" height="50" relative="1" as="geometry">
            <mxPoint x="1126" y="490" as="sourcePoint" />
            <mxPoint x="1136" y="470" as="targetPoint" />
            <Array as="points">
              <mxPoint x="1126" y="490" />
            </Array>
          </mxGeometry>
        </mxCell>
        <mxCell id="2RkcyuEuWD_7XSWE0uLs-184" value="" style="endArrow=none;html=1;rounded=0;labelBackgroundColor=none;strokeColor=#A8201A;fontColor=default;" parent="1" edge="1">
          <mxGeometry width="50" height="50" relative="1" as="geometry">
            <mxPoint x="1236" y="485" as="sourcePoint" />
            <mxPoint x="1246" y="465" as="targetPoint" />
            <Array as="points">
              <mxPoint x="1236" y="485" />
            </Array>
          </mxGeometry>
        </mxCell>
        <mxCell id="2RkcyuEuWD_7XSWE0uLs-185" value="" style="endArrow=classic;html=1;rounded=0;labelBackgroundColor=none;strokeColor=#A8201A;fontColor=default;" parent="1" edge="1">
          <mxGeometry relative="1" as="geometry">
            <mxPoint x="1146" y="550" as="sourcePoint" />
            <mxPoint x="1036" y="550" as="targetPoint" />
            <Array as="points">
              <mxPoint x="1146" y="550" />
            </Array>
          </mxGeometry>
        </mxCell>
        <mxCell id="2RkcyuEuWD_7XSWE0uLs-186" value="&lt;font color=&quot;#0066cc&quot;&gt;reg_Data Out II&lt;/font&gt;" style="edgeLabel;resizable=0;html=1;;align=left;verticalAlign=bottom;labelBackgroundColor=none;fontColor=#143642;" parent="2RkcyuEuWD_7XSWE0uLs-185" connectable="0" vertex="1">
          <mxGeometry x="-1" relative="1" as="geometry">
            <mxPoint x="-100" y="-2" as="offset" />
          </mxGeometry>
        </mxCell>
        <mxCell id="2RkcyuEuWD_7XSWE0uLs-191" value="" style="endArrow=none;html=1;rounded=0;labelBackgroundColor=none;strokeColor=#A8201A;fontColor=default;" parent="1" edge="1">
          <mxGeometry width="50" height="50" relative="1" as="geometry">
            <mxPoint x="1126" y="560" as="sourcePoint" />
            <mxPoint x="1136" y="538" as="targetPoint" />
          </mxGeometry>
        </mxCell>
        <mxCell id="2RkcyuEuWD_7XSWE0uLs-196" value="" style="endArrow=classic;html=1;rounded=0;labelBackgroundColor=none;strokeColor=#A8201A;fontColor=default;" parent="1" edge="1">
          <mxGeometry relative="1" as="geometry">
            <mxPoint x="1146" y="514.6000000000001" as="sourcePoint" />
            <mxPoint x="1036" y="514.6" as="targetPoint" />
            <Array as="points">
              <mxPoint x="1146" y="514.6000000000001" />
            </Array>
          </mxGeometry>
        </mxCell>
        <mxCell id="2RkcyuEuWD_7XSWE0uLs-197" value="&lt;font color=&quot;#0066cc&quot;&gt;4bit ALU sel&lt;/font&gt;" style="edgeLabel;resizable=0;html=1;;align=left;verticalAlign=bottom;labelBackgroundColor=none;fontColor=#143642;" parent="2RkcyuEuWD_7XSWE0uLs-196" connectable="0" vertex="1">
          <mxGeometry x="-1" relative="1" as="geometry">
            <mxPoint x="-90" as="offset" />
          </mxGeometry>
        </mxCell>
        <mxCell id="TzWfCmJ9SfIkoEFI22u--1" value="" style="endArrow=classic;html=1;rounded=0;labelBackgroundColor=none;strokeColor=#A8201A;fontColor=default;" parent="1" edge="1">
          <mxGeometry relative="1" as="geometry">
            <mxPoint x="1326" y="499.55" as="sourcePoint" />
            <mxPoint x="1226" y="499.55000000000007" as="targetPoint" />
            <Array as="points" />
          </mxGeometry>
        </mxCell>
        <mxCell id="TzWfCmJ9SfIkoEFI22u--2" value="&lt;span style=&quot;color: rgb(0, 102, 204);&quot;&gt;reg_Data B&lt;/span&gt;" style="edgeLabel;resizable=0;html=1;;align=left;verticalAlign=bottom;labelBackgroundColor=none;fontColor=#143642;" parent="TzWfCmJ9SfIkoEFI22u--1" connectable="0" vertex="1">
          <mxGeometry x="-1" relative="1" as="geometry">
            <mxPoint x="-70" as="offset" />
          </mxGeometry>
        </mxCell>
        <mxCell id="TzWfCmJ9SfIkoEFI22u--6" value="" style="endArrow=none;html=1;rounded=0;labelBackgroundColor=none;strokeColor=#A8201A;fontColor=default;" parent="1" edge="1">
          <mxGeometry width="50" height="50" relative="1" as="geometry">
            <mxPoint x="1236" y="510" as="sourcePoint" />
            <mxPoint x="1246" y="490" as="targetPoint" />
            <Array as="points">
              <mxPoint x="1236" y="510" />
            </Array>
          </mxGeometry>
        </mxCell>
        <mxCell id="TzWfCmJ9SfIkoEFI22u--57" value="&lt;font style=&quot;font-size: 18px;&quot;&gt;Control Unit&lt;/font&gt;" style="swimlane;whiteSpace=wrap;html=1;strokeColor=#0F8B8D;fontColor=#143642;fillColor=#FAE5C7;startSize=23;labelBackgroundColor=none;rounded=1;" parent="1" vertex="1">
          <mxGeometry x="676" y="417" width="657" height="600" as="geometry" />
        </mxCell>
        <mxCell id="YK1rz87Z7xQPh14AcgLI-1" value="" style="endArrow=none;html=1;rounded=0;labelBackgroundColor=none;strokeColor=#A8201A;fontColor=default;" parent="TzWfCmJ9SfIkoEFI22u--57" edge="1">
          <mxGeometry width="50" height="50" relative="1" as="geometry">
            <mxPoint x="450" y="116" as="sourcePoint" />
            <mxPoint x="460" y="94" as="targetPoint" />
          </mxGeometry>
        </mxCell>
        <mxCell id="2RkcyuEuWD_7XSWE0uLs-157" value="" style="endArrow=classic;html=1;rounded=0;labelBackgroundColor=none;strokeColor=#A8201A;fontColor=default;" parent="TzWfCmJ9SfIkoEFI22u--57" edge="1">
          <mxGeometry relative="1" as="geometry">
            <mxPoint x="23" y="108" as="sourcePoint" />
            <mxPoint x="112" y="108.00000000000006" as="targetPoint" />
            <Array as="points" />
          </mxGeometry>
        </mxCell>
        <mxCell id="2RkcyuEuWD_7XSWE0uLs-158" value="&lt;font color=&quot;#0066cc&quot;&gt;&amp;nbsp; &amp;nbsp; &amp;nbsp; &amp;nbsp; reg_Data_in&lt;/font&gt;" style="edgeLabel;resizable=0;html=1;;align=left;verticalAlign=bottom;labelBackgroundColor=none;fontColor=#143642;" parent="2RkcyuEuWD_7XSWE0uLs-157" connectable="0" vertex="1">
          <mxGeometry x="-1" relative="1" as="geometry">
            <mxPoint x="-21" as="offset" />
          </mxGeometry>
        </mxCell>
        <mxCell id="2RkcyuEuWD_7XSWE0uLs-164" value="" style="endArrow=none;html=1;rounded=0;labelBackgroundColor=none;strokeColor=#A8201A;fontColor=default;" parent="TzWfCmJ9SfIkoEFI22u--57" edge="1">
          <mxGeometry width="50" height="50" relative="1" as="geometry">
            <mxPoint x="92" y="118" as="sourcePoint" />
            <mxPoint x="102" y="98" as="targetPoint" />
            <Array as="points">
              <mxPoint x="92" y="118" />
            </Array>
          </mxGeometry>
        </mxCell>
        <mxCell id="3a0iheVHsGiWW9Dctcr3-40" value="" style="endArrow=classic;html=1;rounded=0;labelBackgroundColor=none;strokeColor=#A8201A;fontColor=default;" parent="TzWfCmJ9SfIkoEFI22u--57" edge="1">
          <mxGeometry relative="1" as="geometry">
            <mxPoint x="112" y="145.00000000000006" as="sourcePoint" />
            <mxPoint x="52" y="145" as="targetPoint" />
            <Array as="points">
              <mxPoint x="112" y="145.00000000000006" />
            </Array>
          </mxGeometry>
        </mxCell>
        <mxCell id="3a0iheVHsGiWW9Dctcr3-41" value="&lt;font color=&quot;#0066cc&quot;&gt;sel_STA&lt;/font&gt;" style="edgeLabel;resizable=0;html=1;;align=left;verticalAlign=bottom;labelBackgroundColor=none;fontColor=#143642;" parent="3a0iheVHsGiWW9Dctcr3-40" connectable="0" vertex="1">
          <mxGeometry x="-1" relative="1" as="geometry">
            <mxPoint x="-50" as="offset" />
          </mxGeometry>
        </mxCell>
        <mxCell id="2RkcyuEuWD_7XSWE0uLs-170" value="" style="endArrow=classic;html=1;rounded=0;labelBackgroundColor=none;strokeColor=#A8201A;fontColor=default;" parent="TzWfCmJ9SfIkoEFI22u--57" edge="1">
          <mxGeometry relative="1" as="geometry">
            <mxPoint x="510" y="220" as="sourcePoint" />
            <mxPoint x="509.5999999999999" y="190" as="targetPoint" />
            <Array as="points" />
          </mxGeometry>
        </mxCell>
        <mxCell id="2RkcyuEuWD_7XSWE0uLs-171" value="&lt;font color=&quot;#0066cc&quot;&gt;Mne_control II&lt;/font&gt;" style="edgeLabel;resizable=0;html=1;;align=left;verticalAlign=bottom;labelBackgroundColor=none;fontColor=#143642;" parent="2RkcyuEuWD_7XSWE0uLs-170" connectable="0" vertex="1">
          <mxGeometry x="-1" relative="1" as="geometry">
            <mxPoint x="31" y="-1" as="offset" />
          </mxGeometry>
        </mxCell>
        <mxCell id="TzWfCmJ9SfIkoEFI22u--8" value="" style="endArrow=none;html=1;rounded=0;labelBackgroundColor=none;strokeColor=#A8201A;fontColor=default;" parent="TzWfCmJ9SfIkoEFI22u--57" edge="1">
          <mxGeometry width="50" height="50" relative="1" as="geometry">
            <mxPoint x="500" y="208" as="sourcePoint" />
            <mxPoint x="520" y="198" as="targetPoint" />
          </mxGeometry>
        </mxCell>
        <mxCell id="2RkcyuEuWD_7XSWE0uLs-179" value="" style="endArrow=classic;html=1;rounded=0;labelBackgroundColor=none;strokeColor=#A8201A;fontColor=default;" parent="TzWfCmJ9SfIkoEFI22u--57" edge="1">
          <mxGeometry relative="1" as="geometry">
            <mxPoint x="650" y="168" as="sourcePoint" />
            <mxPoint x="550" y="168.00000000000006" as="targetPoint" />
            <Array as="points">
              <mxPoint x="620" y="168" />
            </Array>
          </mxGeometry>
        </mxCell>
        <mxCell id="2RkcyuEuWD_7XSWE0uLs-180" value="&lt;span style=&quot;color: rgb(0, 102, 204);&quot;&gt;reg_Data D&lt;/span&gt;" style="edgeLabel;resizable=0;html=1;;align=left;verticalAlign=bottom;labelBackgroundColor=none;fontColor=#143642;" parent="2RkcyuEuWD_7XSWE0uLs-179" connectable="0" vertex="1">
          <mxGeometry x="-1" relative="1" as="geometry">
            <mxPoint x="-70" as="offset" />
          </mxGeometry>
        </mxCell>
        <mxCell id="2RkcyuEuWD_7XSWE0uLs-183" value="" style="endArrow=none;html=1;rounded=0;labelBackgroundColor=none;strokeColor=#A8201A;fontColor=default;" parent="TzWfCmJ9SfIkoEFI22u--57" edge="1">
          <mxGeometry width="50" height="50" relative="1" as="geometry">
            <mxPoint x="560" y="180" as="sourcePoint" />
            <mxPoint x="570" y="160" as="targetPoint" />
            <Array as="points">
              <mxPoint x="560" y="180" />
            </Array>
          </mxGeometry>
        </mxCell>
        <mxCell id="TzWfCmJ9SfIkoEFI22u--3" value="" style="endArrow=classic;html=1;rounded=0;labelBackgroundColor=none;strokeColor=#A8201A;fontColor=default;" parent="TzWfCmJ9SfIkoEFI22u--57" edge="1">
          <mxGeometry relative="1" as="geometry">
            <mxPoint x="650" y="140" as="sourcePoint" />
            <mxPoint x="550" y="140.00000000000006" as="targetPoint" />
            <Array as="points" />
          </mxGeometry>
        </mxCell>
        <mxCell id="TzWfCmJ9SfIkoEFI22u--4" value="&lt;span style=&quot;color: rgb(0, 102, 204);&quot;&gt;reg_Data C&lt;/span&gt;" style="edgeLabel;resizable=0;html=1;;align=left;verticalAlign=bottom;labelBackgroundColor=none;fontColor=#143642;" parent="TzWfCmJ9SfIkoEFI22u--3" connectable="0" vertex="1">
          <mxGeometry x="-1" relative="1" as="geometry">
            <mxPoint x="-70" as="offset" />
          </mxGeometry>
        </mxCell>
        <mxCell id="TzWfCmJ9SfIkoEFI22u--5" value="" style="endArrow=none;html=1;rounded=0;labelBackgroundColor=none;strokeColor=#A8201A;fontColor=default;" parent="TzWfCmJ9SfIkoEFI22u--57" edge="1">
          <mxGeometry width="50" height="50" relative="1" as="geometry">
            <mxPoint x="560" y="150" as="sourcePoint" />
            <mxPoint x="570" y="130" as="targetPoint" />
            <Array as="points">
              <mxPoint x="560" y="150" />
            </Array>
          </mxGeometry>
        </mxCell>
        <mxCell id="3a17f1ce550125da-2" value="&lt;div&gt;Mnemonics Register&lt;/div&gt;" style="whiteSpace=wrap;html=1;shadow=1;fontSize=18;fillColor=#FAE5C7;strokeColor=#0F8B8D;labelBackgroundColor=none;fontColor=#143642;" parent="TzWfCmJ9SfIkoEFI22u--57" vertex="1">
          <mxGeometry x="275" y="276" width="258" height="40" as="geometry" />
        </mxCell>
        <mxCell id="TzWfCmJ9SfIkoEFI22u--9" value="" style="endArrow=classic;html=1;rounded=0;labelBackgroundColor=none;strokeColor=#A8201A;fontColor=default;" parent="TzWfCmJ9SfIkoEFI22u--57" edge="1">
          <mxGeometry relative="1" as="geometry">
            <mxPoint x="633" y="284.99999999999994" as="sourcePoint" />
            <mxPoint x="533" y="284.99999999999994" as="targetPoint" />
            <Array as="points" />
          </mxGeometry>
        </mxCell>
        <mxCell id="TzWfCmJ9SfIkoEFI22u--10" value="&lt;font color=&quot;#0066cc&quot;&gt;8bit Mnemonics&amp;nbsp;&lt;/font&gt;" style="edgeLabel;resizable=0;html=1;;align=left;verticalAlign=bottom;labelBackgroundColor=none;fontColor=#143642;" parent="TzWfCmJ9SfIkoEFI22u--9" connectable="0" vertex="1">
          <mxGeometry x="-1" relative="1" as="geometry">
            <mxPoint x="-80" as="offset" />
          </mxGeometry>
        </mxCell>
        <mxCell id="TzWfCmJ9SfIkoEFI22u--16" value="" style="endArrow=none;html=1;rounded=0;labelBackgroundColor=none;strokeColor=#A8201A;fontColor=default;" parent="TzWfCmJ9SfIkoEFI22u--57" edge="1">
          <mxGeometry width="50" height="50" relative="1" as="geometry">
            <mxPoint x="543" y="296" as="sourcePoint" />
            <mxPoint x="553" y="276" as="targetPoint" />
            <Array as="points">
              <mxPoint x="543" y="296" />
            </Array>
          </mxGeometry>
        </mxCell>
        <mxCell id="TzWfCmJ9SfIkoEFI22u--17" value="" style="endArrow=classic;html=1;rounded=0;labelBackgroundColor=none;strokeColor=#A8201A;fontColor=default;" parent="TzWfCmJ9SfIkoEFI22u--57" edge="1">
          <mxGeometry relative="1" as="geometry">
            <mxPoint x="333.4" y="276" as="sourcePoint" />
            <mxPoint x="332.9999999999999" y="246" as="targetPoint" />
            <Array as="points" />
          </mxGeometry>
        </mxCell>
        <mxCell id="TzWfCmJ9SfIkoEFI22u--18" value="&lt;font color=&quot;#0066cc&quot;&gt;Mne_control I&lt;/font&gt;" style="edgeLabel;resizable=0;html=1;;align=left;verticalAlign=bottom;labelBackgroundColor=none;fontColor=#143642;" parent="TzWfCmJ9SfIkoEFI22u--17" connectable="0" vertex="1">
          <mxGeometry x="-1" relative="1" as="geometry">
            <mxPoint x="-31" y="-33" as="offset" />
          </mxGeometry>
        </mxCell>
        <mxCell id="TzWfCmJ9SfIkoEFI22u--19" value="" style="endArrow=none;html=1;rounded=0;labelBackgroundColor=none;strokeColor=#A8201A;fontColor=default;" parent="TzWfCmJ9SfIkoEFI22u--57" edge="1">
          <mxGeometry width="50" height="50" relative="1" as="geometry">
            <mxPoint x="323" y="266" as="sourcePoint" />
            <mxPoint x="343" y="256" as="targetPoint" />
          </mxGeometry>
        </mxCell>
        <mxCell id="TzWfCmJ9SfIkoEFI22u--20" value="" style="endArrow=classic;html=1;rounded=0;labelBackgroundColor=none;strokeColor=#A8201A;fontColor=default;" parent="TzWfCmJ9SfIkoEFI22u--57" edge="1">
          <mxGeometry relative="1" as="geometry">
            <mxPoint x="483" y="276" as="sourcePoint" />
            <mxPoint x="482.5999999999999" y="246" as="targetPoint" />
            <Array as="points" />
          </mxGeometry>
        </mxCell>
        <mxCell id="TzWfCmJ9SfIkoEFI22u--21" value="&lt;font color=&quot;#0066cc&quot;&gt;Mne_control II&lt;/font&gt;" style="edgeLabel;resizable=0;html=1;;align=left;verticalAlign=bottom;labelBackgroundColor=none;fontColor=#143642;" parent="TzWfCmJ9SfIkoEFI22u--20" connectable="0" vertex="1">
          <mxGeometry x="-1" relative="1" as="geometry">
            <mxPoint x="-30" y="-30" as="offset" />
          </mxGeometry>
        </mxCell>
        <mxCell id="TzWfCmJ9SfIkoEFI22u--22" value="" style="endArrow=none;html=1;rounded=0;labelBackgroundColor=none;strokeColor=#A8201A;fontColor=default;" parent="TzWfCmJ9SfIkoEFI22u--57" edge="1">
          <mxGeometry width="50" height="50" relative="1" as="geometry">
            <mxPoint x="473" y="266" as="sourcePoint" />
            <mxPoint x="493" y="256" as="targetPoint" />
          </mxGeometry>
        </mxCell>
        <mxCell id="lHgVhqsrsGuxtCrdfK7c-15" value="" style="endArrow=classic;html=1;rounded=0;labelBackgroundColor=none;strokeColor=#A8201A;fontColor=default;" parent="TzWfCmJ9SfIkoEFI22u--57" edge="1">
          <mxGeometry relative="1" as="geometry">
            <mxPoint x="407.20000000000005" y="276" as="sourcePoint" />
            <mxPoint x="406.79999999999995" y="246" as="targetPoint" />
            <Array as="points" />
          </mxGeometry>
        </mxCell>
        <mxCell id="lHgVhqsrsGuxtCrdfK7c-16" value="&lt;font color=&quot;#0066cc&quot;&gt;Halt&lt;/font&gt;" style="edgeLabel;resizable=0;html=1;;align=left;verticalAlign=bottom;labelBackgroundColor=none;fontColor=#143642;" parent="lHgVhqsrsGuxtCrdfK7c-15" connectable="0" vertex="1">
          <mxGeometry x="-1" relative="1" as="geometry">
            <mxPoint x="-12" y="-30" as="offset" />
          </mxGeometry>
        </mxCell>
        <mxCell id="2RkcyuEuWD_7XSWE0uLs-46" value="" style="endArrow=none;html=1;rounded=0;labelBackgroundColor=none;strokeColor=#A8201A;fontColor=default;" parent="TzWfCmJ9SfIkoEFI22u--57" edge="1">
          <mxGeometry width="50" height="50" relative="1" as="geometry">
            <mxPoint x="545" y="509" as="sourcePoint" />
            <mxPoint x="555" y="489" as="targetPoint" />
            <Array as="points">
              <mxPoint x="545" y="509" />
            </Array>
          </mxGeometry>
        </mxCell>
        <mxCell id="2RkcyuEuWD_7XSWE0uLs-54" value="" style="endArrow=none;html=1;rounded=0;labelBackgroundColor=none;strokeColor=#A8201A;fontColor=default;" parent="TzWfCmJ9SfIkoEFI22u--57" edge="1">
          <mxGeometry width="50" height="50" relative="1" as="geometry">
            <mxPoint x="553" y="429" as="sourcePoint" />
            <mxPoint x="563" y="409" as="targetPoint" />
            <Array as="points">
              <mxPoint x="553" y="429" />
            </Array>
          </mxGeometry>
        </mxCell>
        <mxCell id="2RkcyuEuWD_7XSWE0uLs-123" value="" style="endArrow=classic;html=1;rounded=0;labelBackgroundColor=none;strokeColor=#A8201A;fontColor=default;" parent="TzWfCmJ9SfIkoEFI22u--57" edge="1">
          <mxGeometry relative="1" as="geometry">
            <mxPoint x="195" y="419" as="sourcePoint" />
            <mxPoint x="255" y="419" as="targetPoint" />
            <Array as="points" />
          </mxGeometry>
        </mxCell>
        <mxCell id="2RkcyuEuWD_7XSWE0uLs-124" value="&lt;font color=&quot;#0066cc&quot;&gt;s2&lt;/font&gt;" style="edgeLabel;resizable=0;html=1;;align=left;verticalAlign=bottom;labelBackgroundColor=none;fontColor=#143642;" parent="2RkcyuEuWD_7XSWE0uLs-123" connectable="0" vertex="1">
          <mxGeometry x="-1" relative="1" as="geometry">
            <mxPoint x="20" as="offset" />
          </mxGeometry>
        </mxCell>
        <mxCell id="2RkcyuEuWD_7XSWE0uLs-126" value="" style="endArrow=classic;html=1;rounded=0;labelBackgroundColor=none;strokeColor=#A8201A;fontColor=default;" parent="TzWfCmJ9SfIkoEFI22u--57" edge="1">
          <mxGeometry relative="1" as="geometry">
            <mxPoint x="195" y="455" as="sourcePoint" />
            <mxPoint x="255" y="455" as="targetPoint" />
            <Array as="points" />
          </mxGeometry>
        </mxCell>
        <mxCell id="2RkcyuEuWD_7XSWE0uLs-127" value="&lt;font color=&quot;#0066cc&quot;&gt;s1&lt;/font&gt;" style="edgeLabel;resizable=0;html=1;;align=left;verticalAlign=bottom;labelBackgroundColor=none;fontColor=#143642;" parent="2RkcyuEuWD_7XSWE0uLs-126" connectable="0" vertex="1">
          <mxGeometry x="-1" relative="1" as="geometry">
            <mxPoint x="20" as="offset" />
          </mxGeometry>
        </mxCell>
        <mxCell id="2RkcyuEuWD_7XSWE0uLs-131" value="" style="endArrow=classic;html=1;rounded=0;labelBackgroundColor=none;strokeColor=#A8201A;fontColor=default;" parent="TzWfCmJ9SfIkoEFI22u--57" edge="1">
          <mxGeometry relative="1" as="geometry">
            <mxPoint x="195" y="493.16999999999996" as="sourcePoint" />
            <mxPoint x="255" y="493.16999999999996" as="targetPoint" />
            <Array as="points" />
          </mxGeometry>
        </mxCell>
        <mxCell id="2RkcyuEuWD_7XSWE0uLs-132" value="&lt;font color=&quot;#0066cc&quot;&gt;s0&lt;/font&gt;" style="edgeLabel;resizable=0;html=1;;align=left;verticalAlign=bottom;labelBackgroundColor=none;fontColor=#143642;" parent="2RkcyuEuWD_7XSWE0uLs-131" connectable="0" vertex="1">
          <mxGeometry x="-1" relative="1" as="geometry">
            <mxPoint x="20" as="offset" />
          </mxGeometry>
        </mxCell>
        <mxCell id="2RkcyuEuWD_7XSWE0uLs-147" value="" style="endArrow=classic;html=1;rounded=0;labelBackgroundColor=none;strokeColor=#A8201A;fontColor=default;" parent="TzWfCmJ9SfIkoEFI22u--57" edge="1">
          <mxGeometry relative="1" as="geometry">
            <mxPoint x="535" y="499" as="sourcePoint" />
            <mxPoint x="645" y="499" as="targetPoint" />
            <Array as="points">
              <mxPoint x="535" y="499" />
            </Array>
          </mxGeometry>
        </mxCell>
        <mxCell id="2RkcyuEuWD_7XSWE0uLs-148" value="&lt;font color=&quot;#0066cc&quot;&gt;8bit address_output&lt;/font&gt;" style="edgeLabel;resizable=0;html=1;;align=left;verticalAlign=bottom;labelBackgroundColor=none;fontColor=#143642;" parent="2RkcyuEuWD_7XSWE0uLs-147" connectable="0" vertex="1">
          <mxGeometry x="-1" relative="1" as="geometry">
            <mxPoint x="20" y="20" as="offset" />
          </mxGeometry>
        </mxCell>
        <mxCell id="2RkcyuEuWD_7XSWE0uLs-149" value="" style="endArrow=classic;html=1;rounded=0;labelBackgroundColor=none;strokeColor=#A8201A;fontColor=default;" parent="TzWfCmJ9SfIkoEFI22u--57" edge="1">
          <mxGeometry relative="1" as="geometry">
            <mxPoint x="565" y="419" as="sourcePoint" />
            <mxPoint x="535" y="419" as="targetPoint" />
            <Array as="points">
              <mxPoint x="645" y="419" />
              <mxPoint x="565" y="419" />
            </Array>
          </mxGeometry>
        </mxCell>
        <mxCell id="2RkcyuEuWD_7XSWE0uLs-150" value="&lt;font color=&quot;#0066cc&quot;&gt;8bit adds_data&lt;/font&gt;" style="edgeLabel;resizable=0;html=1;;align=left;verticalAlign=bottom;labelBackgroundColor=none;fontColor=#143642;" parent="2RkcyuEuWD_7XSWE0uLs-149" connectable="0" vertex="1">
          <mxGeometry x="-1" relative="1" as="geometry">
            <mxPoint as="offset" />
          </mxGeometry>
        </mxCell>
        <mxCell id="3a0iheVHsGiWW9Dctcr3-89" value="" style="verticalLabelPosition=bottom;verticalAlign=top;html=1;shape=mxgraph.basic.frame;dx=10;whiteSpace=wrap;strokeColor=#0F8B8D;fontColor=#143642;fillColor=#FAE5C7;labelBackgroundColor=none;" parent="TzWfCmJ9SfIkoEFI22u--57" vertex="1">
          <mxGeometry x="255" y="406" width="280" height="120" as="geometry" />
        </mxCell>
        <mxCell id="3a0iheVHsGiWW9Dctcr3-91" value="&lt;font style=&quot;font-size: 20px;&quot;&gt;Program Counter&lt;/font&gt;" style="text;html=1;align=center;verticalAlign=middle;resizable=0;points=[];autosize=1;strokeColor=none;fillColor=none;fontColor=#143642;labelBackgroundColor=none;" parent="TzWfCmJ9SfIkoEFI22u--57" vertex="1">
          <mxGeometry x="270" y="428" width="171" height="36" as="geometry" />
        </mxCell>
        <mxCell id="3a0iheVHsGiWW9Dctcr3-94" value="&lt;div style=&quot;font-size: 11px;&quot;&gt;&lt;/div&gt;&lt;table style=&quot;font-size: 11px;&quot;&gt;&lt;tbody&gt;&lt;tr&gt;&lt;td&gt;&lt;font style=&quot;font-size: 11px;&quot;&gt;&lt;br&gt;&lt;/font&gt;&lt;/td&gt;&lt;td&gt;&lt;font style=&quot;font-size: 11px;&quot;&gt;&lt;br&gt;&lt;/font&gt;&lt;/td&gt;&lt;td&gt;&lt;font style=&quot;font-size: 11px;&quot;&gt;&lt;br&gt;&lt;/font&gt;&lt;/td&gt;&lt;td&gt;&lt;font style=&quot;font-size: 11px;&quot;&gt;&lt;br&gt;&lt;/font&gt;&lt;/td&gt;&lt;td&gt;&lt;font style=&quot;font-size: 11px;&quot;&gt;&lt;br&gt;&lt;/font&gt;&lt;/td&gt;&lt;td&gt;&lt;font style=&quot;font-size: 11px;&quot;&gt;&lt;br&gt;&lt;/font&gt;&lt;/td&gt;&lt;td&gt;&lt;font style=&quot;font-size: 11px;&quot;&gt;&lt;br&gt;&lt;/font&gt;&lt;/td&gt;&lt;td&gt;&lt;font style=&quot;font-size: 11px;&quot;&gt;&lt;br&gt;&lt;/font&gt;&lt;/td&gt;&lt;/tr&gt;&lt;/tbody&gt;&lt;/table&gt;&lt;div style=&quot;font-size: 11px;&quot;&gt;&lt;br&gt;&lt;/div&gt;" style="sketch=0;pointerEvents=1;shadow=0;dashed=0;html=1;fillColor=#ffcd28;labelPosition=center;verticalLabelPosition=bottom;verticalAlign=top;align=center;outlineConnect=0;shape=mxgraph.veeam2.storage_snapshot;labelBackgroundColor=none;strokeColor=#d79b00;gradientColor=#ffa500;" parent="TzWfCmJ9SfIkoEFI22u--57" vertex="1">
          <mxGeometry x="335" y="476" width="180" height="31" as="geometry" />
        </mxCell>
        <mxCell id="liRQcFIVTC5ywfAvfltO-1" value="" style="shadow=0;dashed=0;align=center;html=1;strokeWidth=1;shape=mxgraph.electrical.abstract.mux2;whiteSpace=wrap;rotation=90;fillColor=#FAEFD7;strokeColor=#b46504;" parent="TzWfCmJ9SfIkoEFI22u--57" vertex="1">
          <mxGeometry x="293" y="324" width="48" height="95" as="geometry" />
        </mxCell>
        <mxCell id="2RkcyuEuWD_7XSWE0uLs-133" value="" style="endArrow=classic;html=1;rounded=0;labelBackgroundColor=none;strokeColor=#A8201A;fontColor=default;" parent="TzWfCmJ9SfIkoEFI22u--57" edge="1">
          <mxGeometry relative="1" as="geometry">
            <mxPoint x="322" y="394" as="sourcePoint" />
            <mxPoint x="322" y="406" as="targetPoint" />
            <Array as="points" />
          </mxGeometry>
        </mxCell>
        <mxCell id="2RkcyuEuWD_7XSWE0uLs-134" value="&lt;font color=&quot;#0066cc&quot;&gt;clk&lt;/font&gt;" style="edgeLabel;resizable=0;html=1;;align=left;verticalAlign=bottom;labelBackgroundColor=none;fontColor=#143642;" parent="2RkcyuEuWD_7XSWE0uLs-133" connectable="0" vertex="1">
          <mxGeometry x="-1" relative="1" as="geometry">
            <mxPoint x="-23" y="12" as="offset" />
          </mxGeometry>
        </mxCell>
        <mxCell id="liRQcFIVTC5ywfAvfltO-3" value="&lt;span style=&quot;color: rgba(0, 0, 0, 0); font-family: monospace; font-size: 0px;&quot;&gt;%3CmxGraphModel%3E%3Croot%3E%3CmxCell%20id%3D%220%22%2F%3E%3CmxCell%20id%3D%221%22%20parent%3D%220%22%2F%3E%3CmxCell%20id%3D%222%22%20value%3D%22%26lt%3Bfont%20color%3D%26quot%3B%230066cc%26quot%3B%26gt%3Bready_flag%20I%26lt%3B%2Ffont%26gt%3B%22%20style%3D%22edgeLabel%3Bresizable%3D0%3Bhtml%3D1%3B%3Balign%3Dleft%3BverticalAlign%3Dbottom%3BlabelBackgroundColor%3Dnone%3BfontColor%3D%23143642%3B%22%20connectable%3D%220%22%20vertex%3D%221%22%20parent%3D%221%22%3E%3CmxGeometry%20x%3D%22540%22%20y%3D%22688%22%20as%3D%22geometry%22%2F%3E%3C%2FmxCell%3E%3C%2Froot%3E%3C%2FmxGraphModel%3E&lt;/span&gt;" style="edgeLabel;resizable=0;html=1;;align=left;verticalAlign=bottom;labelBackgroundColor=none;fontColor=#143642;" parent="TzWfCmJ9SfIkoEFI22u--57" connectable="0" vertex="1">
          <mxGeometry x="338" y="348" as="geometry" />
        </mxCell>
        <mxCell id="liRQcFIVTC5ywfAvfltO-5" value="&lt;font color=&quot;#0066cc&quot;&gt;ready_flag II&lt;/font&gt;" style="edgeLabel;resizable=0;html=1;;align=left;verticalAlign=bottom;labelBackgroundColor=none;fontColor=#143642;" parent="TzWfCmJ9SfIkoEFI22u--57" connectable="0" vertex="1">
          <mxGeometry x="323" y="345" as="geometry" />
        </mxCell>
        <mxCell id="liRQcFIVTC5ywfAvfltO-6" value="&lt;font color=&quot;#0066cc&quot;&gt;ready_flag I&lt;/font&gt;" style="edgeLabel;resizable=0;html=1;;align=left;verticalAlign=bottom;labelBackgroundColor=none;fontColor=#143642;" parent="TzWfCmJ9SfIkoEFI22u--57" connectable="0" vertex="1">
          <mxGeometry x="257" y="345" as="geometry" />
        </mxCell>
        <mxCell id="2RkcyuEuWD_7XSWE0uLs-137" value="" style="endArrow=classic;html=1;rounded=0;labelBackgroundColor=none;strokeColor=#A8201A;fontColor=default;" parent="TzWfCmJ9SfIkoEFI22u--57" edge="1">
          <mxGeometry relative="1" as="geometry">
            <mxPoint x="455" y="366" as="sourcePoint" />
            <mxPoint x="455" y="406" as="targetPoint" />
            <Array as="points" />
          </mxGeometry>
        </mxCell>
        <mxCell id="2RkcyuEuWD_7XSWE0uLs-138" value="&lt;font color=&quot;#0066cc&quot;&gt;clear&lt;/font&gt;" style="edgeLabel;resizable=0;html=1;;align=left;verticalAlign=bottom;labelBackgroundColor=none;fontColor=#143642;" parent="2RkcyuEuWD_7XSWE0uLs-137" connectable="0" vertex="1">
          <mxGeometry x="-1" relative="1" as="geometry">
            <mxPoint x="-10" as="offset" />
          </mxGeometry>
        </mxCell>
        <mxCell id="2RkcyuEuWD_7XSWE0uLs-135" value="" style="endArrow=classic;html=1;rounded=0;labelBackgroundColor=none;strokeColor=#A8201A;fontColor=default;" parent="TzWfCmJ9SfIkoEFI22u--57" edge="1">
          <mxGeometry relative="1" as="geometry">
            <mxPoint x="407" y="366" as="sourcePoint" />
            <mxPoint x="407" y="406" as="targetPoint" />
            <Array as="points" />
          </mxGeometry>
        </mxCell>
        <mxCell id="2RkcyuEuWD_7XSWE0uLs-136" value="&lt;font color=&quot;#0066cc&quot;&gt;preset&lt;/font&gt;" style="edgeLabel;resizable=0;html=1;;align=left;verticalAlign=bottom;labelBackgroundColor=none;fontColor=#143642;" parent="2RkcyuEuWD_7XSWE0uLs-135" connectable="0" vertex="1">
          <mxGeometry x="-1" relative="1" as="geometry">
            <mxPoint x="-10" as="offset" />
          </mxGeometry>
        </mxCell>
        <mxCell id="2RkcyuEuWD_7XSWE0uLs-143" value="" style="endArrow=classic;html=1;rounded=0;labelBackgroundColor=none;strokeColor=#A8201A;fontColor=default;" parent="TzWfCmJ9SfIkoEFI22u--57" edge="1">
          <mxGeometry relative="1" as="geometry">
            <mxPoint x="405" y="580" as="sourcePoint" />
            <mxPoint x="405" y="526" as="targetPoint" />
            <Array as="points">
              <mxPoint x="405" y="580" />
            </Array>
          </mxGeometry>
        </mxCell>
        <mxCell id="2RkcyuEuWD_7XSWE0uLs-144" value="&lt;font color=&quot;#0066cc&quot;&gt;G&lt;/font&gt;" style="edgeLabel;resizable=0;html=1;;align=center;verticalAlign=bottom;labelBackgroundColor=none;fontColor=#143642;" parent="2RkcyuEuWD_7XSWE0uLs-143" connectable="0" vertex="1">
          <mxGeometry x="-1" relative="1" as="geometry">
            <mxPoint y="15" as="offset" />
          </mxGeometry>
        </mxCell>
        <mxCell id="2RkcyuEuWD_7XSWE0uLs-141" value="" style="endArrow=classic;html=1;rounded=0;labelBackgroundColor=none;strokeColor=#A8201A;fontColor=default;" parent="TzWfCmJ9SfIkoEFI22u--57" edge="1">
          <mxGeometry relative="1" as="geometry">
            <mxPoint x="355.28" y="580" as="sourcePoint" />
            <mxPoint x="355.28" y="526" as="targetPoint" />
            <Array as="points">
              <mxPoint x="355.28" y="580" />
            </Array>
          </mxGeometry>
        </mxCell>
        <mxCell id="2RkcyuEuWD_7XSWE0uLs-142" value="&lt;font color=&quot;#0066cc&quot;&gt;E&lt;/font&gt;" style="edgeLabel;resizable=0;html=1;;align=center;verticalAlign=bottom;labelBackgroundColor=none;fontColor=#143642;" parent="2RkcyuEuWD_7XSWE0uLs-141" connectable="0" vertex="1">
          <mxGeometry x="-1" relative="1" as="geometry">
            <mxPoint y="15" as="offset" />
          </mxGeometry>
        </mxCell>
        <mxCell id="2RkcyuEuWD_7XSWE0uLs-139" value="" style="endArrow=classic;html=1;rounded=0;labelBackgroundColor=none;strokeColor=#A8201A;fontColor=default;" parent="TzWfCmJ9SfIkoEFI22u--57" edge="1">
          <mxGeometry relative="1" as="geometry">
            <mxPoint x="305" y="580" as="sourcePoint" />
            <mxPoint x="305" y="526" as="targetPoint" />
            <Array as="points">
              <mxPoint x="305" y="580" />
            </Array>
          </mxGeometry>
        </mxCell>
        <mxCell id="2RkcyuEuWD_7XSWE0uLs-140" value="&lt;font color=&quot;#0066cc&quot;&gt;L&lt;/font&gt;" style="edgeLabel;resizable=0;html=1;;align=center;verticalAlign=bottom;labelBackgroundColor=none;fontColor=#143642;" parent="2RkcyuEuWD_7XSWE0uLs-139" connectable="0" vertex="1">
          <mxGeometry x="-1" relative="1" as="geometry">
            <mxPoint y="15" as="offset" />
          </mxGeometry>
        </mxCell>
        <mxCell id="2RkcyuEuWD_7XSWE0uLs-145" value="" style="endArrow=classic;html=1;rounded=0;labelBackgroundColor=none;strokeColor=#A8201A;fontColor=default;" parent="TzWfCmJ9SfIkoEFI22u--57" edge="1">
          <mxGeometry relative="1" as="geometry">
            <mxPoint x="491" y="580" as="sourcePoint" />
            <mxPoint x="491" y="526" as="targetPoint" />
            <Array as="points">
              <mxPoint x="491" y="580" />
            </Array>
          </mxGeometry>
        </mxCell>
        <mxCell id="2RkcyuEuWD_7XSWE0uLs-146" value="&lt;font color=&quot;#0066cc&quot;&gt;Jump&lt;/font&gt;" style="edgeLabel;resizable=0;html=1;;align=center;verticalAlign=bottom;labelBackgroundColor=none;fontColor=#143642;" parent="2RkcyuEuWD_7XSWE0uLs-145" connectable="0" vertex="1">
          <mxGeometry x="-1" relative="1" as="geometry">
            <mxPoint y="15" as="offset" />
          </mxGeometry>
        </mxCell>
        <mxCell id="lHgVhqsrsGuxtCrdfK7c-17" value="&lt;div style=&quot;text-align: center;&quot;&gt;&lt;span style=&quot;background-color: initial;&quot;&gt;&lt;font style=&quot;font-size: 14px;&quot; color=&quot;#143642&quot;&gt;Mux&lt;/font&gt;&lt;/span&gt;&lt;/div&gt;" style="text;whiteSpace=wrap;html=1;labelBackgroundColor=none;fontColor=#143642;" parent="TzWfCmJ9SfIkoEFI22u--57" vertex="1">
          <mxGeometry x="308" y="360" width="30" height="20" as="geometry" />
        </mxCell>
        <mxCell id="2RkcyuEuWD_7XSWE0uLs-168" value="" style="endArrow=classic;html=1;rounded=0;labelBackgroundColor=none;strokeColor=#A8201A;fontColor=default;" parent="TzWfCmJ9SfIkoEFI22u--57" edge="1">
          <mxGeometry relative="1" as="geometry">
            <mxPoint x="151" y="336" as="sourcePoint" />
            <mxPoint x="150.5999999999999" y="306" as="targetPoint" />
            <Array as="points" />
          </mxGeometry>
        </mxCell>
        <mxCell id="2RkcyuEuWD_7XSWE0uLs-169" value="&lt;font color=&quot;#0066cc&quot;&gt;Mne_control I&lt;/font&gt;" style="edgeLabel;resizable=0;html=1;;align=left;verticalAlign=bottom;labelBackgroundColor=none;fontColor=#143642;" parent="2RkcyuEuWD_7XSWE0uLs-168" connectable="0" vertex="1">
          <mxGeometry x="-1" relative="1" as="geometry">
            <mxPoint x="-30" y="10" as="offset" />
          </mxGeometry>
        </mxCell>
        <mxCell id="TzWfCmJ9SfIkoEFI22u--7" value="" style="endArrow=none;html=1;rounded=0;labelBackgroundColor=none;strokeColor=#A8201A;fontColor=default;" parent="TzWfCmJ9SfIkoEFI22u--57" edge="1">
          <mxGeometry width="50" height="50" relative="1" as="geometry">
            <mxPoint x="141" y="326" as="sourcePoint" />
            <mxPoint x="161" y="316" as="targetPoint" />
          </mxGeometry>
        </mxCell>
        <mxCell id="lHgVhqsrsGuxtCrdfK7c-20" value="" style="endArrow=classic;html=1;rounded=0;labelBackgroundColor=none;strokeColor=#A8201A;fontColor=default;" parent="TzWfCmJ9SfIkoEFI22u--57" edge="1">
          <mxGeometry relative="1" as="geometry">
            <mxPoint x="111" y="188.00000000000006" as="sourcePoint" />
            <mxPoint x="12" y="188" as="targetPoint" />
            <Array as="points">
              <mxPoint x="111" y="188.00000000000006" />
            </Array>
          </mxGeometry>
        </mxCell>
        <mxCell id="lHgVhqsrsGuxtCrdfK7c-21" value="&lt;font color=&quot;#0066cc&quot;&gt;reg_Data_sel&lt;/font&gt;" style="edgeLabel;resizable=0;html=1;;align=left;verticalAlign=bottom;labelBackgroundColor=none;fontColor=#143642;" parent="lHgVhqsrsGuxtCrdfK7c-20" connectable="0" vertex="1">
          <mxGeometry x="-1" relative="1" as="geometry">
            <mxPoint x="-81" as="offset" />
          </mxGeometry>
        </mxCell>
        <mxCell id="lHgVhqsrsGuxtCrdfK7c-22" value="" style="endArrow=none;html=1;rounded=0;labelBackgroundColor=none;strokeColor=#A8201A;fontColor=default;" parent="TzWfCmJ9SfIkoEFI22u--57" edge="1">
          <mxGeometry width="50" height="50" relative="1" as="geometry">
            <mxPoint x="91" y="198" as="sourcePoint" />
            <mxPoint x="101" y="178" as="targetPoint" />
            <Array as="points">
              <mxPoint x="91" y="198" />
            </Array>
          </mxGeometry>
        </mxCell>
        <mxCell id="lHgVhqsrsGuxtCrdfK7c-23" value="" style="endArrow=classic;html=1;rounded=0;labelBackgroundColor=none;strokeColor=#A8201A;fontColor=default;" parent="TzWfCmJ9SfIkoEFI22u--57" edge="1">
          <mxGeometry relative="1" as="geometry">
            <mxPoint x="110" y="282.00000000000006" as="sourcePoint" />
            <mxPoint x="14" y="282" as="targetPoint" />
            <Array as="points">
              <mxPoint x="80" y="282" />
              <mxPoint x="110" y="282.00000000000006" />
            </Array>
          </mxGeometry>
        </mxCell>
        <mxCell id="lHgVhqsrsGuxtCrdfK7c-24" value="&lt;font color=&quot;#0066cc&quot;&gt;reg_Data_in_sel&lt;/font&gt;" style="edgeLabel;resizable=0;html=1;;align=left;verticalAlign=bottom;labelBackgroundColor=none;fontColor=#143642;" parent="lHgVhqsrsGuxtCrdfK7c-23" connectable="0" vertex="1">
          <mxGeometry x="-1" relative="1" as="geometry">
            <mxPoint x="-96" y="-3" as="offset" />
          </mxGeometry>
        </mxCell>
        <mxCell id="lHgVhqsrsGuxtCrdfK7c-25" value="" style="endArrow=none;html=1;rounded=0;labelBackgroundColor=none;strokeColor=#A8201A;fontColor=default;" parent="TzWfCmJ9SfIkoEFI22u--57" edge="1">
          <mxGeometry width="50" height="50" relative="1" as="geometry">
            <mxPoint x="99" y="270" as="sourcePoint" />
            <mxPoint x="93" y="294" as="targetPoint" />
            <Array as="points" />
          </mxGeometry>
        </mxCell>
        <mxCell id="lHgVhqsrsGuxtCrdfK7c-26" value="" style="endArrow=classic;html=1;rounded=0;labelBackgroundColor=none;strokeColor=#A8201A;fontColor=default;" parent="TzWfCmJ9SfIkoEFI22u--57" edge="1">
          <mxGeometry relative="1" as="geometry">
            <mxPoint x="192" y="178.00000000000006" as="sourcePoint" />
            <mxPoint x="292" y="178" as="targetPoint" />
            <Array as="points" />
          </mxGeometry>
        </mxCell>
        <mxCell id="lHgVhqsrsGuxtCrdfK7c-27" value="&lt;font color=&quot;#0066cc&quot;&gt;Read&lt;/font&gt;" style="edgeLabel;resizable=0;html=1;;align=left;verticalAlign=bottom;labelBackgroundColor=none;fontColor=#143642;" parent="lHgVhqsrsGuxtCrdfK7c-26" connectable="0" vertex="1">
          <mxGeometry x="-1" relative="1" as="geometry">
            <mxPoint x="20" as="offset" />
          </mxGeometry>
        </mxCell>
        <mxCell id="lHgVhqsrsGuxtCrdfK7c-28" value="" style="endArrow=classic;html=1;rounded=0;labelBackgroundColor=none;strokeColor=#A8201A;fontColor=default;" parent="TzWfCmJ9SfIkoEFI22u--57" edge="1">
          <mxGeometry relative="1" as="geometry">
            <mxPoint x="192" y="211.00000000000006" as="sourcePoint" />
            <mxPoint x="292" y="211" as="targetPoint" />
            <Array as="points" />
          </mxGeometry>
        </mxCell>
        <mxCell id="lHgVhqsrsGuxtCrdfK7c-29" value="&lt;font color=&quot;#0066cc&quot;&gt;Write&lt;/font&gt;" style="edgeLabel;resizable=0;html=1;;align=left;verticalAlign=bottom;labelBackgroundColor=none;fontColor=#143642;" parent="lHgVhqsrsGuxtCrdfK7c-28" connectable="0" vertex="1">
          <mxGeometry x="-1" relative="1" as="geometry">
            <mxPoint x="20" as="offset" />
          </mxGeometry>
        </mxCell>
        <mxCell id="ei9KARJSfrRvBFPGdnp8-1" value="" style="endArrow=classic;html=1;rounded=0;labelBackgroundColor=none;strokeColor=#A8201A;fontColor=default;" parent="TzWfCmJ9SfIkoEFI22u--57" edge="1">
          <mxGeometry relative="1" as="geometry">
            <mxPoint x="110" y="243" as="sourcePoint" />
            <mxPoint x="50" y="243" as="targetPoint" />
            <Array as="points">
              <mxPoint x="110" y="243" />
            </Array>
          </mxGeometry>
        </mxCell>
        <mxCell id="ei9KARJSfrRvBFPGdnp8-2" value="&lt;font color=&quot;#0066cc&quot;&gt;D&lt;/font&gt;" style="edgeLabel;resizable=0;html=1;;align=left;verticalAlign=bottom;labelBackgroundColor=none;fontColor=#143642;" parent="ei9KARJSfrRvBFPGdnp8-1" connectable="0" vertex="1">
          <mxGeometry x="-1" relative="1" as="geometry">
            <mxPoint x="-33" as="offset" />
          </mxGeometry>
        </mxCell>
        <mxCell id="Gax9TWXcnXks7zf8WwSg-1" value="" style="endArrow=classic;html=1;rounded=0;labelBackgroundColor=none;strokeColor=#A8201A;fontColor=default;" parent="TzWfCmJ9SfIkoEFI22u--57" edge="1">
          <mxGeometry relative="1" as="geometry">
            <mxPoint x="275" y="288" as="sourcePoint" />
            <mxPoint x="212" y="288" as="targetPoint" />
            <Array as="points" />
          </mxGeometry>
        </mxCell>
        <mxCell id="Gax9TWXcnXks7zf8WwSg-2" value="&lt;font color=&quot;#0066cc&quot;&gt;Trig&lt;/font&gt;" style="edgeLabel;resizable=0;html=1;;align=left;verticalAlign=bottom;labelBackgroundColor=none;fontColor=#143642;" parent="Gax9TWXcnXks7zf8WwSg-1" connectable="0" vertex="1">
          <mxGeometry x="-1" relative="1" as="geometry">
            <mxPoint x="-33" y="-3" as="offset" />
          </mxGeometry>
        </mxCell>
        <mxCell id="Gax9TWXcnXks7zf8WwSg-3" value="" style="endArrow=classic;html=1;rounded=0;labelBackgroundColor=none;strokeColor=#A8201A;fontColor=default;" parent="TzWfCmJ9SfIkoEFI22u--57" edge="1">
          <mxGeometry relative="1" as="geometry">
            <mxPoint x="275" y="312" as="sourcePoint" />
            <mxPoint x="212" y="312" as="targetPoint" />
            <Array as="points" />
          </mxGeometry>
        </mxCell>
        <mxCell id="Gax9TWXcnXks7zf8WwSg-5" value="" style="endArrow=classic;html=1;rounded=0;labelBackgroundColor=none;strokeColor=#A8201A;fontColor=default;" parent="TzWfCmJ9SfIkoEFI22u--57" edge="1">
          <mxGeometry relative="1" as="geometry">
            <mxPoint x="633" y="312" as="sourcePoint" />
            <mxPoint x="533" y="312" as="targetPoint" />
            <Array as="points" />
          </mxGeometry>
        </mxCell>
        <mxCell id="Gax9TWXcnXks7zf8WwSg-6" value="&lt;font color=&quot;#0066cc&quot;&gt;start&lt;/font&gt;" style="edgeLabel;resizable=0;html=1;;align=left;verticalAlign=bottom;labelBackgroundColor=none;fontColor=#143642;" parent="Gax9TWXcnXks7zf8WwSg-5" connectable="0" vertex="1">
          <mxGeometry x="-1" relative="1" as="geometry">
            <mxPoint x="-80" as="offset" />
          </mxGeometry>
        </mxCell>
        <mxCell id="Gax9TWXcnXks7zf8WwSg-7" value="&lt;font color=&quot;#0066cc&quot;&gt;ready_flag II&lt;/font&gt;" style="edgeLabel;resizable=0;html=1;;align=left;verticalAlign=bottom;labelBackgroundColor=none;fontColor=#143642;" parent="TzWfCmJ9SfIkoEFI22u--57" connectable="0" vertex="1">
          <mxGeometry x="212" y="312" as="geometry" />
        </mxCell>
        <mxCell id="wp7SDLHr7NWAtoWKndbq-2" value="&lt;font style=&quot;font-size: 10px;&quot; color=&quot;#0066cc&quot;&gt;32 bit&lt;/font&gt;" style="edgeLabel;resizable=0;html=1;;align=left;verticalAlign=bottom;labelBackgroundColor=none;fontColor=#143642;" parent="TzWfCmJ9SfIkoEFI22u--57" connectable="0" vertex="1">
          <mxGeometry x="8" y="126" as="geometry" />
        </mxCell>
        <mxCell id="wp7SDLHr7NWAtoWKndbq-3" value="&lt;font style=&quot;font-size: 10px;&quot; color=&quot;#0066cc&quot;&gt;16 bit&lt;/font&gt;" style="edgeLabel;resizable=0;html=1;;align=left;verticalAlign=bottom;labelBackgroundColor=none;fontColor=#143642;" parent="TzWfCmJ9SfIkoEFI22u--57" connectable="0" vertex="1">
          <mxGeometry x="263" y="90" as="geometry" />
        </mxCell>
        <mxCell id="wp7SDLHr7NWAtoWKndbq-89" value="&lt;font style=&quot;font-size: 10px;&quot; color=&quot;#0066cc&quot;&gt;16 bit&lt;/font&gt;" style="edgeLabel;resizable=0;html=1;;align=left;verticalAlign=bottom;labelBackgroundColor=none;fontColor=#143642;" parent="TzWfCmJ9SfIkoEFI22u--57" connectable="0" vertex="1">
          <mxGeometry x="263" y="132" as="geometry" />
        </mxCell>
        <mxCell id="wp7SDLHr7NWAtoWKndbq-90" value="&lt;font style=&quot;font-size: 10px;&quot; color=&quot;#0066cc&quot;&gt;16 bit&lt;/font&gt;" style="edgeLabel;resizable=0;html=1;;align=left;verticalAlign=bottom;labelBackgroundColor=none;fontColor=#143642;" parent="TzWfCmJ9SfIkoEFI22u--57" connectable="0" vertex="1">
          <mxGeometry x="5" y="93" as="geometry" />
        </mxCell>
        <mxCell id="TzWfCmJ9SfIkoEFI22u--58" value="&lt;font style=&quot;font-size: 18px;&quot;&gt;ALU&lt;/font&gt;" style="swimlane;whiteSpace=wrap;html=1;strokeColor=#0F8B8D;fontColor=#143642;fillColor=#FAE5C7;startSize=23;labelBackgroundColor=none;" parent="1" vertex="1">
          <mxGeometry x="276" y="530" width="380" height="460" as="geometry" />
        </mxCell>
        <mxCell id="3a0iheVHsGiWW9Dctcr3-113" value="" style="sketch=0;pointerEvents=1;shadow=0;dashed=0;html=1;fillColor=#fff2cc;labelPosition=center;verticalLabelPosition=bottom;verticalAlign=top;align=center;outlineConnect=0;shape=mxgraph.veeam2.cpu_socket;strokeColor=#d6b656;gradientColor=#ffd966;" parent="TzWfCmJ9SfIkoEFI22u--58" vertex="1">
          <mxGeometry x="100" y="52" width="170" height="287" as="geometry" />
        </mxCell>
        <mxCell id="3a0iheVHsGiWW9Dctcr3-114" value="" style="rounded=0;whiteSpace=wrap;html=1;fillColor=none;strokeColor=#2FB39D;strokeWidth=1;fontColor=#143642;" parent="TzWfCmJ9SfIkoEFI22u--58" vertex="1">
          <mxGeometry x="100" y="50" width="170" height="289" as="geometry" />
        </mxCell>
        <mxCell id="3a0iheVHsGiWW9Dctcr3-115" value="&lt;div style=&quot;text-align: center;&quot;&gt;&lt;br&gt;&lt;/div&gt;" style="text;whiteSpace=wrap;html=1;labelBackgroundColor=none;fontColor=#143642;" parent="TzWfCmJ9SfIkoEFI22u--58" vertex="1">
          <mxGeometry x="169" y="79" width="30" height="20" as="geometry" />
        </mxCell>
        <mxCell id="3a0iheVHsGiWW9Dctcr3-116" value="&lt;div style=&quot;text-align: center;&quot;&gt;&lt;font style=&quot;font-size: 18px;&quot;&gt;ALU&lt;/font&gt;&lt;/div&gt;" style="text;whiteSpace=wrap;html=1;labelBackgroundColor=none;fontColor=#143642;" parent="TzWfCmJ9SfIkoEFI22u--58" vertex="1">
          <mxGeometry x="163" y="73" width="30" height="20" as="geometry" />
        </mxCell>
        <mxCell id="TzWfCmJ9SfIkoEFI22u--59" value="&lt;span style=&quot;font-size: 18px;&quot;&gt;Random Memory&lt;/span&gt;" style="swimlane;whiteSpace=wrap;html=1;strokeColor=#0F8B8D;fontColor=#143642;fillColor=#FAE5C7;startSize=23;labelBackgroundColor=none;" parent="1" vertex="1">
          <mxGeometry x="1356" y="510" width="300" height="480" as="geometry" />
        </mxCell>
        <mxCell id="TzWfCmJ9SfIkoEFI22u--116" value="&lt;font style=&quot;font-size: 18px; font-weight: normal;&quot;&gt;RAM&lt;/font&gt;" style="shape=table;startSize=30;container=1;collapsible=1;childLayout=tableLayout;fixedRows=1;rowLines=0;fontStyle=1;align=center;resizeLast=1;html=1;strokeColor=#0F8B8D;fontColor=#143642;fillColor=#FAE5C7;labelBackgroundColor=none;" parent="TzWfCmJ9SfIkoEFI22u--59" vertex="1">
          <mxGeometry x="90" y="60" width="180" height="290" as="geometry" />
        </mxCell>
        <mxCell id="TzWfCmJ9SfIkoEFI22u--117" value="" style="shape=tableRow;horizontal=0;startSize=0;swimlaneHead=0;swimlaneBody=0;fillColor=none;collapsible=0;dropTarget=0;points=[[0,0.5],[1,0.5]];portConstraint=eastwest;top=0;left=0;right=0;bottom=1;strokeColor=#0F8B8D;fontColor=#143642;labelBackgroundColor=none;" parent="TzWfCmJ9SfIkoEFI22u--116" vertex="1">
          <mxGeometry y="30" width="180" height="30" as="geometry" />
        </mxCell>
        <mxCell id="TzWfCmJ9SfIkoEFI22u--118" value="Mne" style="shape=partialRectangle;connectable=0;fillColor=none;top=0;left=0;bottom=0;right=0;fontStyle=1;overflow=hidden;whiteSpace=wrap;html=1;strokeColor=#0F8B8D;fontColor=#143642;labelBackgroundColor=none;" parent="TzWfCmJ9SfIkoEFI22u--117" vertex="1">
          <mxGeometry width="30" height="30" as="geometry">
            <mxRectangle width="30" height="30" as="alternateBounds" />
          </mxGeometry>
        </mxCell>
        <mxCell id="TzWfCmJ9SfIkoEFI22u--119" value="Data" style="shape=partialRectangle;connectable=0;fillColor=none;top=0;left=0;bottom=0;right=0;align=left;spacingLeft=6;fontStyle=5;overflow=hidden;whiteSpace=wrap;html=1;strokeColor=#0F8B8D;fontColor=#143642;labelBackgroundColor=none;" parent="TzWfCmJ9SfIkoEFI22u--117" vertex="1">
          <mxGeometry x="30" width="150" height="30" as="geometry">
            <mxRectangle width="150" height="30" as="alternateBounds" />
          </mxGeometry>
        </mxCell>
        <mxCell id="TzWfCmJ9SfIkoEFI22u--120" value="" style="shape=tableRow;horizontal=0;startSize=0;swimlaneHead=0;swimlaneBody=0;fillColor=none;collapsible=0;dropTarget=0;points=[[0,0.5],[1,0.5]];portConstraint=eastwest;top=0;left=0;right=0;bottom=0;strokeColor=#0F8B8D;fontColor=#143642;labelBackgroundColor=none;" parent="TzWfCmJ9SfIkoEFI22u--116" vertex="1">
          <mxGeometry y="60" width="180" height="30" as="geometry" />
        </mxCell>
        <mxCell id="TzWfCmJ9SfIkoEFI22u--121" value="&lt;font style=&quot;font-size: 9px;&quot;&gt;00..00&lt;/font&gt;" style="shape=partialRectangle;connectable=0;fillColor=none;top=0;left=0;bottom=0;right=0;editable=1;overflow=hidden;whiteSpace=wrap;html=1;strokeColor=#0F8B8D;fontColor=#143642;labelBackgroundColor=none;" parent="TzWfCmJ9SfIkoEFI22u--120" vertex="1">
          <mxGeometry width="30" height="30" as="geometry">
            <mxRectangle width="30" height="30" as="alternateBounds" />
          </mxGeometry>
        </mxCell>
        <mxCell id="TzWfCmJ9SfIkoEFI22u--122" value="0100........1100" style="shape=partialRectangle;connectable=0;fillColor=none;top=0;left=0;bottom=0;right=0;align=left;spacingLeft=6;overflow=hidden;whiteSpace=wrap;html=1;strokeColor=#0F8B8D;fontColor=#143642;labelBackgroundColor=none;" parent="TzWfCmJ9SfIkoEFI22u--120" vertex="1">
          <mxGeometry x="30" width="150" height="30" as="geometry">
            <mxRectangle width="150" height="30" as="alternateBounds" />
          </mxGeometry>
        </mxCell>
        <mxCell id="TzWfCmJ9SfIkoEFI22u--123" value="" style="shape=tableRow;horizontal=0;startSize=0;swimlaneHead=0;swimlaneBody=0;fillColor=none;collapsible=0;dropTarget=0;points=[[0,0.5],[1,0.5]];portConstraint=eastwest;top=0;left=0;right=0;bottom=0;strokeColor=#0F8B8D;fontColor=#143642;labelBackgroundColor=none;" parent="TzWfCmJ9SfIkoEFI22u--116" vertex="1">
          <mxGeometry y="90" width="180" height="30" as="geometry" />
        </mxCell>
        <mxCell id="TzWfCmJ9SfIkoEFI22u--124" value="&lt;font style=&quot;font-size: 9px;&quot;&gt;00..01&lt;/font&gt;" style="shape=partialRectangle;connectable=0;fillColor=none;top=0;left=0;bottom=0;right=0;editable=1;overflow=hidden;whiteSpace=wrap;html=1;strokeColor=#0F8B8D;fontColor=#143642;labelBackgroundColor=none;" parent="TzWfCmJ9SfIkoEFI22u--123" vertex="1">
          <mxGeometry width="30" height="30" as="geometry">
            <mxRectangle width="30" height="30" as="alternateBounds" />
          </mxGeometry>
        </mxCell>
        <mxCell id="TzWfCmJ9SfIkoEFI22u--125" value="0000........0001" style="shape=partialRectangle;connectable=0;fillColor=none;top=0;left=0;bottom=0;right=0;align=left;spacingLeft=6;overflow=hidden;whiteSpace=wrap;html=1;strokeColor=#0F8B8D;fontColor=#143642;labelBackgroundColor=none;" parent="TzWfCmJ9SfIkoEFI22u--123" vertex="1">
          <mxGeometry x="30" width="150" height="30" as="geometry">
            <mxRectangle width="150" height="30" as="alternateBounds" />
          </mxGeometry>
        </mxCell>
        <mxCell id="TzWfCmJ9SfIkoEFI22u--126" value="" style="shape=tableRow;horizontal=0;startSize=0;swimlaneHead=0;swimlaneBody=0;fillColor=none;collapsible=0;dropTarget=0;points=[[0,0.5],[1,0.5]];portConstraint=eastwest;top=0;left=0;right=0;bottom=0;strokeColor=#0F8B8D;fontColor=#143642;labelBackgroundColor=none;" parent="TzWfCmJ9SfIkoEFI22u--116" vertex="1">
          <mxGeometry y="120" width="180" height="30" as="geometry" />
        </mxCell>
        <mxCell id="TzWfCmJ9SfIkoEFI22u--127" value="&lt;font style=&quot;font-size: 9px;&quot;&gt;00..10&lt;/font&gt;" style="shape=partialRectangle;connectable=0;fillColor=none;top=0;left=0;bottom=0;right=0;editable=1;overflow=hidden;whiteSpace=wrap;html=1;strokeColor=#0F8B8D;fontColor=#143642;labelBackgroundColor=none;" parent="TzWfCmJ9SfIkoEFI22u--126" vertex="1">
          <mxGeometry width="30" height="30" as="geometry">
            <mxRectangle width="30" height="30" as="alternateBounds" />
          </mxGeometry>
        </mxCell>
        <mxCell id="TzWfCmJ9SfIkoEFI22u--128" value="0110........1010" style="shape=partialRectangle;connectable=0;fillColor=none;top=0;left=0;bottom=0;right=0;align=left;spacingLeft=6;overflow=hidden;whiteSpace=wrap;html=1;strokeColor=#0F8B8D;fontColor=#143642;labelBackgroundColor=none;" parent="TzWfCmJ9SfIkoEFI22u--126" vertex="1">
          <mxGeometry x="30" width="150" height="30" as="geometry">
            <mxRectangle width="150" height="30" as="alternateBounds" />
          </mxGeometry>
        </mxCell>
        <mxCell id="TzWfCmJ9SfIkoEFI22u--129" value="" style="endArrow=none;html=1;rounded=0;strokeColor=#A8201A;fontColor=default;fillColor=#FAE5C7;entryX=0.168;entryY=1.03;entryDx=0;entryDy=0;entryPerimeter=0;labelBackgroundColor=none;" parent="TzWfCmJ9SfIkoEFI22u--59" target="TzWfCmJ9SfIkoEFI22u--126" edge="1">
          <mxGeometry width="50" height="50" relative="1" as="geometry">
            <mxPoint x="120" y="350" as="sourcePoint" />
            <mxPoint x="120" y="220" as="targetPoint" />
          </mxGeometry>
        </mxCell>
        <mxCell id="TzWfCmJ9SfIkoEFI22u--130" value="0001........0111" style="shape=partialRectangle;connectable=0;fillColor=none;top=0;left=0;bottom=0;right=0;align=left;spacingLeft=6;overflow=hidden;whiteSpace=wrap;html=1;strokeColor=#0F8B8D;fontColor=#143642;labelBackgroundColor=none;" parent="TzWfCmJ9SfIkoEFI22u--59" vertex="1">
          <mxGeometry x="120" y="210" width="150" height="30" as="geometry">
            <mxRectangle width="150" height="30" as="alternateBounds" />
          </mxGeometry>
        </mxCell>
        <mxCell id="TzWfCmJ9SfIkoEFI22u--131" value="0000........0100" style="shape=partialRectangle;connectable=0;fillColor=none;top=0;left=0;bottom=0;right=0;align=left;spacingLeft=6;overflow=hidden;whiteSpace=wrap;html=1;strokeColor=#0F8B8D;fontColor=#143642;labelBackgroundColor=none;" parent="TzWfCmJ9SfIkoEFI22u--59" vertex="1">
          <mxGeometry x="120" y="240" width="150" height="30" as="geometry">
            <mxRectangle width="150" height="30" as="alternateBounds" />
          </mxGeometry>
        </mxCell>
        <mxCell id="TzWfCmJ9SfIkoEFI22u--132" value="0010........0011" style="shape=partialRectangle;connectable=0;fillColor=none;top=0;left=0;bottom=0;right=0;align=left;spacingLeft=6;overflow=hidden;whiteSpace=wrap;html=1;strokeColor=#0F8B8D;fontColor=#143642;labelBackgroundColor=none;" parent="TzWfCmJ9SfIkoEFI22u--59" vertex="1">
          <mxGeometry x="120" y="270" width="150" height="30" as="geometry">
            <mxRectangle width="150" height="30" as="alternateBounds" />
          </mxGeometry>
        </mxCell>
        <mxCell id="TzWfCmJ9SfIkoEFI22u--133" value="0111........0010" style="shape=partialRectangle;connectable=0;fillColor=none;top=0;left=0;bottom=0;right=0;align=left;spacingLeft=6;overflow=hidden;whiteSpace=wrap;html=1;strokeColor=#0F8B8D;fontColor=#143642;labelBackgroundColor=none;" parent="TzWfCmJ9SfIkoEFI22u--59" vertex="1">
          <mxGeometry x="120" y="290" width="150" height="30" as="geometry">
            <mxRectangle width="150" height="30" as="alternateBounds" />
          </mxGeometry>
        </mxCell>
        <mxCell id="TzWfCmJ9SfIkoEFI22u--134" value="&lt;font style=&quot;font-size: 9px;&quot;&gt;00..11&lt;/font&gt;" style="shape=partialRectangle;connectable=0;fillColor=none;top=0;left=0;bottom=0;right=0;editable=1;overflow=hidden;whiteSpace=wrap;html=1;strokeColor=#0F8B8D;fontColor=#143642;labelBackgroundColor=none;" parent="TzWfCmJ9SfIkoEFI22u--59" vertex="1">
          <mxGeometry x="90" y="210" width="30" height="30" as="geometry">
            <mxRectangle width="30" height="30" as="alternateBounds" />
          </mxGeometry>
        </mxCell>
        <mxCell id="TzWfCmJ9SfIkoEFI22u--135" value="0010........0000" style="shape=partialRectangle;connectable=0;fillColor=none;top=0;left=0;bottom=0;right=0;align=left;spacingLeft=6;overflow=hidden;whiteSpace=wrap;html=1;strokeColor=#0F8B8D;fontColor=#143642;labelBackgroundColor=none;" parent="TzWfCmJ9SfIkoEFI22u--59" vertex="1">
          <mxGeometry x="120" y="320" width="150" height="30" as="geometry">
            <mxRectangle width="150" height="30" as="alternateBounds" />
          </mxGeometry>
        </mxCell>
        <mxCell id="TzWfCmJ9SfIkoEFI22u--136" value="&lt;font size=&quot;1&quot;&gt;.......&lt;/font&gt;" style="shape=partialRectangle;connectable=0;fillColor=none;top=0;left=0;bottom=0;right=0;editable=1;overflow=hidden;whiteSpace=wrap;html=1;strokeColor=#0F8B8D;fontColor=#143642;labelBackgroundColor=none;" parent="TzWfCmJ9SfIkoEFI22u--59" vertex="1">
          <mxGeometry x="90" y="240" width="30" height="30" as="geometry">
            <mxRectangle width="30" height="30" as="alternateBounds" />
          </mxGeometry>
        </mxCell>
        <mxCell id="TzWfCmJ9SfIkoEFI22u--137" value="&lt;font size=&quot;1&quot;&gt;.......&lt;/font&gt;" style="shape=partialRectangle;connectable=0;fillColor=none;top=0;left=0;bottom=0;right=0;editable=1;overflow=hidden;whiteSpace=wrap;html=1;strokeColor=#0F8B8D;fontColor=#143642;labelBackgroundColor=none;" parent="TzWfCmJ9SfIkoEFI22u--59" vertex="1">
          <mxGeometry x="90" y="270" width="30" height="30" as="geometry">
            <mxRectangle width="30" height="30" as="alternateBounds" />
          </mxGeometry>
        </mxCell>
        <mxCell id="TzWfCmJ9SfIkoEFI22u--138" value="&lt;span style=&quot;font-size: x-small;&quot;&gt;.......&lt;/span&gt;" style="shape=partialRectangle;connectable=0;fillColor=none;top=0;left=0;bottom=0;right=0;editable=1;overflow=hidden;whiteSpace=wrap;html=1;strokeColor=#0F8B8D;fontColor=#143642;labelBackgroundColor=none;" parent="TzWfCmJ9SfIkoEFI22u--59" vertex="1">
          <mxGeometry x="90" y="290" width="30" height="30" as="geometry">
            <mxRectangle width="30" height="30" as="alternateBounds" />
          </mxGeometry>
        </mxCell>
        <mxCell id="TzWfCmJ9SfIkoEFI22u--139" value="&lt;font size=&quot;1&quot;&gt;11..11&lt;/font&gt;" style="shape=partialRectangle;connectable=0;fillColor=none;top=0;left=0;bottom=0;right=0;editable=1;overflow=hidden;whiteSpace=wrap;html=1;strokeColor=#0F8B8D;fontColor=#143642;labelBackgroundColor=none;" parent="TzWfCmJ9SfIkoEFI22u--59" vertex="1">
          <mxGeometry x="90" y="320" width="30" height="30" as="geometry">
            <mxRectangle width="30" height="30" as="alternateBounds" />
          </mxGeometry>
        </mxCell>
        <mxCell id="3a0iheVHsGiWW9Dctcr3-27" value="&lt;font color=&quot;#0066cc&quot;&gt;8bit addres&lt;/font&gt;" style="edgeLabel;resizable=0;html=1;;align=left;verticalAlign=bottom;labelBackgroundColor=none;fontColor=#143642;" parent="TzWfCmJ9SfIkoEFI22u--59" connectable="0" vertex="1">
          <mxGeometry x="120" y="380" as="geometry" />
        </mxCell>
        <mxCell id="3a0iheVHsGiWW9Dctcr3-28" value="" style="shape=trapezoid;perimeter=trapezoidPerimeter;whiteSpace=wrap;html=1;fixedSize=1;fillColor=#FAE5C7;strokeColor=#0F8B8D;labelBackgroundColor=none;fontColor=#143642;" parent="TzWfCmJ9SfIkoEFI22u--59" vertex="1">
          <mxGeometry x="65" y="385" width="100" height="29" as="geometry" />
        </mxCell>
        <mxCell id="3a0iheVHsGiWW9Dctcr3-29" value="" style="endArrow=classic;html=1;rounded=0;labelBackgroundColor=none;strokeColor=#A8201A;fontColor=default;" parent="TzWfCmJ9SfIkoEFI22u--59" edge="1">
          <mxGeometry relative="1" as="geometry">
            <mxPoint x="94" y="459" as="sourcePoint" />
            <mxPoint x="94" y="414" as="targetPoint" />
            <Array as="points" />
          </mxGeometry>
        </mxCell>
        <mxCell id="3a0iheVHsGiWW9Dctcr3-30" value="&lt;font color=&quot;#0066cc&quot;&gt;PC_address&lt;/font&gt;" style="edgeLabel;resizable=0;html=1;;align=left;verticalAlign=bottom;labelBackgroundColor=none;fontColor=#143642;" parent="3a0iheVHsGiWW9Dctcr3-29" connectable="0" vertex="1">
          <mxGeometry x="-1" relative="1" as="geometry">
            <mxPoint x="-50" y="20" as="offset" />
          </mxGeometry>
        </mxCell>
        <mxCell id="3a0iheVHsGiWW9Dctcr3-31" value="" style="endArrow=none;html=1;rounded=0;labelBackgroundColor=none;strokeColor=#A8201A;fontColor=default;" parent="TzWfCmJ9SfIkoEFI22u--59" edge="1">
          <mxGeometry width="50" height="50" relative="1" as="geometry">
            <mxPoint x="84" y="444" as="sourcePoint" />
            <mxPoint x="103" y="434" as="targetPoint" />
            <Array as="points">
              <mxPoint x="84" y="444" />
            </Array>
          </mxGeometry>
        </mxCell>
        <mxCell id="3a0iheVHsGiWW9Dctcr3-32" value="" style="endArrow=classic;html=1;rounded=0;labelBackgroundColor=none;strokeColor=#A8201A;fontColor=default;" parent="TzWfCmJ9SfIkoEFI22u--59" edge="1">
          <mxGeometry relative="1" as="geometry">
            <mxPoint x="134" y="444.02" as="sourcePoint" />
            <mxPoint x="134" y="414" as="targetPoint" />
            <Array as="points">
              <mxPoint x="134" y="459" />
              <mxPoint x="134" y="444.02" />
            </Array>
          </mxGeometry>
        </mxCell>
        <mxCell id="3a0iheVHsGiWW9Dctcr3-33" value="&lt;font color=&quot;#0066cc&quot;&gt;register_address&lt;/font&gt;" style="edgeLabel;resizable=0;html=1;;align=left;verticalAlign=bottom;labelBackgroundColor=none;fontColor=#143642;" parent="3a0iheVHsGiWW9Dctcr3-32" connectable="0" vertex="1">
          <mxGeometry x="-1" relative="1" as="geometry">
            <mxPoint x="-20" y="35" as="offset" />
          </mxGeometry>
        </mxCell>
        <mxCell id="3a0iheVHsGiWW9Dctcr3-34" value="" style="endArrow=none;html=1;rounded=0;labelBackgroundColor=none;strokeColor=#A8201A;fontColor=default;" parent="TzWfCmJ9SfIkoEFI22u--59" edge="1">
          <mxGeometry width="50" height="50" relative="1" as="geometry">
            <mxPoint x="124" y="444" as="sourcePoint" />
            <mxPoint x="143" y="434" as="targetPoint" />
            <Array as="points">
              <mxPoint x="124" y="444" />
            </Array>
          </mxGeometry>
        </mxCell>
        <mxCell id="3a0iheVHsGiWW9Dctcr3-35" value="" style="endArrow=classic;html=1;rounded=0;labelBackgroundColor=none;strokeColor=#A8201A;fontColor=default;" parent="TzWfCmJ9SfIkoEFI22u--59" edge="1">
          <mxGeometry relative="1" as="geometry">
            <mxPoint x="15" y="408" as="sourcePoint" />
            <mxPoint x="68" y="408" as="targetPoint" />
            <Array as="points" />
          </mxGeometry>
        </mxCell>
        <mxCell id="3a0iheVHsGiWW9Dctcr3-36" value="&lt;font color=&quot;#0066cc&quot;&gt;sel_STA&lt;/font&gt;" style="edgeLabel;resizable=0;html=1;;align=left;verticalAlign=bottom;labelBackgroundColor=none;fontColor=#143642;" parent="3a0iheVHsGiWW9Dctcr3-35" connectable="0" vertex="1">
          <mxGeometry x="-1" relative="1" as="geometry">
            <mxPoint as="offset" />
          </mxGeometry>
        </mxCell>
        <mxCell id="3a0iheVHsGiWW9Dctcr3-37" value="" style="endArrow=classic;html=1;rounded=0;labelBackgroundColor=none;strokeColor=#A8201A;fontColor=default;" parent="TzWfCmJ9SfIkoEFI22u--59" edge="1">
          <mxGeometry relative="1" as="geometry">
            <mxPoint x="115.38" y="385" as="sourcePoint" />
            <mxPoint x="115" y="350" as="targetPoint" />
            <Array as="points" />
          </mxGeometry>
        </mxCell>
        <mxCell id="3a0iheVHsGiWW9Dctcr3-38" value="&lt;div style=&quot;text-align: center;&quot;&gt;&lt;span style=&quot;background-color: initial;&quot;&gt;&lt;font style=&quot;font-size: 12px;&quot; color=&quot;#143642&quot;&gt;Mux&lt;/font&gt;&lt;/span&gt;&lt;/div&gt;" style="text;whiteSpace=wrap;html=1;labelBackgroundColor=none;fontColor=#143642;" parent="TzWfCmJ9SfIkoEFI22u--59" vertex="1">
          <mxGeometry x="100" y="380" width="30" height="20" as="geometry" />
        </mxCell>
        <mxCell id="Vava-zG-Sl0TcGPeXXkN-1" value="" style="endArrow=classic;html=1;rounded=0;labelBackgroundColor=none;strokeColor=#A8201A;fontColor=default;" parent="TzWfCmJ9SfIkoEFI22u--59" edge="1">
          <mxGeometry relative="1" as="geometry">
            <mxPoint x="15" y="390.25" as="sourcePoint" />
            <mxPoint x="80" y="389.75" as="targetPoint" />
            <Array as="points" />
          </mxGeometry>
        </mxCell>
        <mxCell id="Vava-zG-Sl0TcGPeXXkN-2" value="&lt;font color=&quot;#0066cc&quot;&gt;Halt&lt;/font&gt;" style="edgeLabel;resizable=0;html=1;;align=left;verticalAlign=bottom;labelBackgroundColor=none;fontColor=#143642;" parent="Vava-zG-Sl0TcGPeXXkN-1" connectable="0" vertex="1">
          <mxGeometry x="-1" relative="1" as="geometry">
            <mxPoint x="10" as="offset" />
          </mxGeometry>
        </mxCell>
        <mxCell id="ZWt4RlgPNfKc0oK6AG_2-2" value="" style="verticalLabelPosition=bottom;shadow=0;dashed=0;align=center;html=1;verticalAlign=top;shape=mxgraph.electrical.logic_gates.logic_gate;operation=or;fillColor=#fff2cc;strokeColor=#d6b656;fillStyle=zigzag-line;rotation=-90;" parent="TzWfCmJ9SfIkoEFI22u--59" vertex="1">
          <mxGeometry x="228" y="357" width="30" height="18" as="geometry" />
        </mxCell>
        <mxCell id="2RkcyuEuWD_7XSWE0uLs-72" value="" style="endArrow=classic;html=1;rounded=0;labelBackgroundColor=none;strokeColor=#A8201A;fontColor=default;" parent="TzWfCmJ9SfIkoEFI22u--59" edge="1">
          <mxGeometry relative="1" as="geometry">
            <mxPoint x="192" y="434" as="sourcePoint" />
            <mxPoint x="192" y="350" as="targetPoint" />
          </mxGeometry>
        </mxCell>
        <mxCell id="2RkcyuEuWD_7XSWE0uLs-74" value="&lt;font color=&quot;#0066cc&quot;&gt;Write&lt;/font&gt;" style="edgeLabel;resizable=0;html=1;;align=left;verticalAlign=bottom;labelBackgroundColor=none;fontColor=#143642;" parent="2RkcyuEuWD_7XSWE0uLs-72" connectable="0" vertex="1">
          <mxGeometry x="-1" relative="1" as="geometry">
            <mxPoint x="-15" y="18" as="offset" />
          </mxGeometry>
        </mxCell>
        <mxCell id="2RkcyuEuWD_7XSWE0uLs-75" value="" style="endArrow=classic;html=1;rounded=0;labelBackgroundColor=none;strokeColor=#A8201A;fontColor=default;" parent="TzWfCmJ9SfIkoEFI22u--59" edge="1">
          <mxGeometry relative="1" as="geometry">
            <mxPoint x="228" y="417" as="sourcePoint" />
            <mxPoint x="237" y="380" as="targetPoint" />
            <Array as="points">
              <mxPoint x="228" y="408" />
              <mxPoint x="237" y="408" />
              <mxPoint x="237" y="399" />
            </Array>
          </mxGeometry>
        </mxCell>
        <mxCell id="2RkcyuEuWD_7XSWE0uLs-76" value="&lt;font color=&quot;#0066cc&quot;&gt;Read&lt;/font&gt;" style="edgeLabel;resizable=0;html=1;;align=left;verticalAlign=bottom;labelBackgroundColor=none;fontColor=#143642;" parent="2RkcyuEuWD_7XSWE0uLs-75" connectable="0" vertex="1">
          <mxGeometry x="-1" relative="1" as="geometry">
            <mxPoint x="-15" y="15" as="offset" />
          </mxGeometry>
        </mxCell>
        <mxCell id="ZWt4RlgPNfKc0oK6AG_2-3" value="" style="endArrow=classic;html=1;rounded=0;labelBackgroundColor=none;strokeColor=#A8201A;fontColor=default;" parent="TzWfCmJ9SfIkoEFI22u--59" edge="1">
          <mxGeometry relative="1" as="geometry">
            <mxPoint x="258" y="435" as="sourcePoint" />
            <mxPoint x="247.5" y="380" as="targetPoint" />
            <Array as="points">
              <mxPoint x="258" y="408" />
              <mxPoint x="247.5" y="408" />
              <mxPoint x="247.5" y="399" />
            </Array>
          </mxGeometry>
        </mxCell>
        <mxCell id="ZWt4RlgPNfKc0oK6AG_2-4" value="&lt;font color=&quot;#0066cc&quot;&gt;Read Trig&lt;/font&gt;" style="edgeLabel;resizable=0;html=1;;align=left;verticalAlign=bottom;labelBackgroundColor=none;fontColor=#143642;" parent="ZWt4RlgPNfKc0oK6AG_2-3" connectable="0" vertex="1">
          <mxGeometry x="-1" relative="1" as="geometry">
            <mxPoint x="-21" y="15" as="offset" />
          </mxGeometry>
        </mxCell>
        <mxCell id="TzWfCmJ9SfIkoEFI22u--93" value="" style="endArrow=classic;html=1;rounded=0;strokeColor=#A8201A;fontColor=default;fillColor=#FAE5C7;labelBackgroundColor=none;" parent="1" edge="1">
          <mxGeometry width="50" height="50" relative="1" as="geometry">
            <mxPoint x="976" y="1030" as="sourcePoint" />
            <mxPoint x="976" y="1017" as="targetPoint" />
          </mxGeometry>
        </mxCell>
        <mxCell id="TzWfCmJ9SfIkoEFI22u--94" value="" style="endArrow=none;html=1;rounded=0;strokeColor=#A8201A;fontColor=default;fillColor=#FAE5C7;labelBackgroundColor=none;" parent="1" edge="1">
          <mxGeometry width="50" height="50" relative="1" as="geometry">
            <mxPoint x="456" y="1030" as="sourcePoint" />
            <mxPoint x="975" y="1029" as="targetPoint" />
          </mxGeometry>
        </mxCell>
        <mxCell id="TzWfCmJ9SfIkoEFI22u--95" value="" style="endArrow=classic;html=1;rounded=0;strokeColor=#A8201A;fontColor=default;fillColor=#FAE5C7;labelBackgroundColor=none;" parent="1" edge="1">
          <mxGeometry width="50" height="50" relative="1" as="geometry">
            <mxPoint x="456" y="1030" as="sourcePoint" />
            <mxPoint x="456" y="990" as="targetPoint" />
          </mxGeometry>
        </mxCell>
        <mxCell id="TzWfCmJ9SfIkoEFI22u--101" value="" style="endArrow=none;dashed=1;html=1;dashPattern=1 3;strokeWidth=2;rounded=0;strokeColor=#A8201A;fontColor=default;fillColor=#FAE5C7;labelBackgroundColor=none;" parent="1" edge="1">
          <mxGeometry width="50" height="50" relative="1" as="geometry">
            <mxPoint x="976" y="1040" as="sourcePoint" />
            <mxPoint x="976" y="1030" as="targetPoint" />
          </mxGeometry>
        </mxCell>
        <mxCell id="TzWfCmJ9SfIkoEFI22u--102" value="" style="endArrow=none;dashed=1;html=1;rounded=0;strokeColor=#A8201A;fontColor=default;fillColor=#FAE5C7;labelBackgroundColor=none;" parent="1" edge="1">
          <mxGeometry width="50" height="50" relative="1" as="geometry">
            <mxPoint x="976" y="1040" as="sourcePoint" />
            <mxPoint x="976" y="1030" as="targetPoint" />
          </mxGeometry>
        </mxCell>
        <mxCell id="3a0iheVHsGiWW9Dctcr3-43" value="Register A" style="whiteSpace=wrap;html=1;shadow=1;fontSize=18;fillColor=#FAE5C7;strokeColor=#0F8B8D;labelBackgroundColor=none;fontColor=#143642;" parent="1" vertex="1">
          <mxGeometry x="616.5" y="184" width="160" height="50" as="geometry" />
        </mxCell>
        <mxCell id="3a0iheVHsGiWW9Dctcr3-44" value="Register B" style="whiteSpace=wrap;html=1;shadow=1;fontSize=18;fillColor=#FAE5C7;strokeColor=#0F8B8D;labelBackgroundColor=none;fontColor=#143642;" parent="1" vertex="1">
          <mxGeometry x="816.5" y="184" width="160" height="50" as="geometry" />
        </mxCell>
        <mxCell id="3a0iheVHsGiWW9Dctcr3-45" value="Register C" style="whiteSpace=wrap;html=1;shadow=1;fontSize=18;fillColor=#FAE5C7;strokeColor=#0F8B8D;labelBackgroundColor=none;fontColor=#143642;" parent="1" vertex="1">
          <mxGeometry x="1016.5" y="184" width="160" height="50" as="geometry" />
        </mxCell>
        <mxCell id="3a0iheVHsGiWW9Dctcr3-46" value="Register D" style="whiteSpace=wrap;html=1;shadow=1;fontSize=18;fillColor=#FAE5C7;strokeColor=#0F8B8D;labelBackgroundColor=none;fontColor=#143642;" parent="1" vertex="1">
          <mxGeometry x="1216.5" y="184" width="160" height="50" as="geometry" />
        </mxCell>
        <mxCell id="3a0iheVHsGiWW9Dctcr3-49" value="" style="endArrow=classic;html=1;rounded=0;labelBackgroundColor=none;strokeColor=#A8201A;fontColor=default;" parent="1" edge="1">
          <mxGeometry relative="1" as="geometry">
            <mxPoint x="846.5" y="144" as="sourcePoint" />
            <mxPoint x="846.5" y="184" as="targetPoint" />
            <Array as="points" />
          </mxGeometry>
        </mxCell>
        <mxCell id="3a0iheVHsGiWW9Dctcr3-50" value="&lt;font color=&quot;#0066cc&quot;&gt;&amp;nbsp; &amp;nbsp; &amp;nbsp; &amp;nbsp; reg_Data_16bit&lt;/font&gt;" style="edgeLabel;resizable=0;html=1;;align=left;verticalAlign=bottom;labelBackgroundColor=none;fontColor=#143642;" parent="3a0iheVHsGiWW9Dctcr3-49" connectable="0" vertex="1">
          <mxGeometry x="-1" relative="1" as="geometry">
            <mxPoint x="-50" as="offset" />
          </mxGeometry>
        </mxCell>
        <mxCell id="3a0iheVHsGiWW9Dctcr3-51" value="" style="endArrow=none;html=1;rounded=0;labelBackgroundColor=none;strokeColor=#A8201A;fontColor=default;" parent="1" edge="1">
          <mxGeometry width="50" height="50" relative="1" as="geometry">
            <mxPoint x="836.5" y="164" as="sourcePoint" />
            <mxPoint x="855.5" y="154" as="targetPoint" />
            <Array as="points">
              <mxPoint x="836.5" y="164" />
            </Array>
          </mxGeometry>
        </mxCell>
        <mxCell id="3a0iheVHsGiWW9Dctcr3-52" value="" style="endArrow=classic;html=1;rounded=0;labelBackgroundColor=none;strokeColor=#A8201A;fontColor=default;" parent="1" edge="1">
          <mxGeometry relative="1" as="geometry">
            <mxPoint x="1046.5" y="144" as="sourcePoint" />
            <mxPoint x="1046.5" y="184" as="targetPoint" />
            <Array as="points" />
          </mxGeometry>
        </mxCell>
        <mxCell id="3a0iheVHsGiWW9Dctcr3-53" value="&lt;font color=&quot;#0066cc&quot;&gt;&amp;nbsp; &amp;nbsp; &amp;nbsp; &amp;nbsp; reg_Data_16bit&lt;/font&gt;" style="edgeLabel;resizable=0;html=1;;align=left;verticalAlign=bottom;labelBackgroundColor=none;fontColor=#143642;" parent="3a0iheVHsGiWW9Dctcr3-52" connectable="0" vertex="1">
          <mxGeometry x="-1" relative="1" as="geometry">
            <mxPoint x="-50" as="offset" />
          </mxGeometry>
        </mxCell>
        <mxCell id="3a0iheVHsGiWW9Dctcr3-54" value="" style="endArrow=none;html=1;rounded=0;labelBackgroundColor=none;strokeColor=#A8201A;fontColor=default;" parent="1" edge="1">
          <mxGeometry width="50" height="50" relative="1" as="geometry">
            <mxPoint x="1036.5" y="164" as="sourcePoint" />
            <mxPoint x="1055.5" y="154" as="targetPoint" />
            <Array as="points">
              <mxPoint x="1036.5" y="164" />
            </Array>
          </mxGeometry>
        </mxCell>
        <mxCell id="3a0iheVHsGiWW9Dctcr3-55" value="" style="endArrow=classic;html=1;rounded=0;labelBackgroundColor=none;strokeColor=#A8201A;fontColor=default;" parent="1" edge="1">
          <mxGeometry relative="1" as="geometry">
            <mxPoint x="1247.5" y="144" as="sourcePoint" />
            <mxPoint x="1247.5" y="184" as="targetPoint" />
            <Array as="points" />
          </mxGeometry>
        </mxCell>
        <mxCell id="3a0iheVHsGiWW9Dctcr3-56" value="&lt;font color=&quot;#0066cc&quot;&gt;&amp;nbsp; &amp;nbsp; &amp;nbsp; &amp;nbsp; reg_Data_bit&lt;/font&gt;" style="edgeLabel;resizable=0;html=1;;align=left;verticalAlign=bottom;labelBackgroundColor=none;fontColor=#143642;" parent="3a0iheVHsGiWW9Dctcr3-55" connectable="0" vertex="1">
          <mxGeometry x="-1" relative="1" as="geometry">
            <mxPoint x="-50" as="offset" />
          </mxGeometry>
        </mxCell>
        <mxCell id="3a0iheVHsGiWW9Dctcr3-57" value="" style="endArrow=none;html=1;rounded=0;labelBackgroundColor=none;strokeColor=#A8201A;fontColor=default;" parent="1" edge="1">
          <mxGeometry width="50" height="50" relative="1" as="geometry">
            <mxPoint x="1237.5" y="164" as="sourcePoint" />
            <mxPoint x="1256.5" y="154" as="targetPoint" />
            <Array as="points">
              <mxPoint x="1237.5" y="164" />
            </Array>
          </mxGeometry>
        </mxCell>
        <mxCell id="3a0iheVHsGiWW9Dctcr3-58" value="" style="endArrow=classic;html=1;rounded=0;labelBackgroundColor=none;strokeColor=#A8201A;fontColor=default;entryX=0;entryY=0.7347108438340108;entryDx=0;entryDy=3;entryPerimeter=0;" parent="1" target="lHgVhqsrsGuxtCrdfK7c-30" edge="1">
          <mxGeometry relative="1" as="geometry">
            <mxPoint x="646.5" y="234" as="sourcePoint" />
            <mxPoint x="813.5" y="306" as="targetPoint" />
            <Array as="points">
              <mxPoint x="646.5" y="306" />
              <mxPoint x="798.5" y="306" />
            </Array>
          </mxGeometry>
        </mxCell>
        <mxCell id="3a0iheVHsGiWW9Dctcr3-59" value="&lt;font color=&quot;#0066cc&quot;&gt;&amp;nbsp; &amp;nbsp; &amp;nbsp; &amp;nbsp; reg_Data_in&lt;/font&gt;" style="edgeLabel;resizable=0;html=1;;align=left;verticalAlign=bottom;labelBackgroundColor=none;fontColor=#143642;" parent="3a0iheVHsGiWW9Dctcr3-58" connectable="0" vertex="1">
          <mxGeometry x="-1" relative="1" as="geometry">
            <mxPoint x="-94" y="39" as="offset" />
          </mxGeometry>
        </mxCell>
        <mxCell id="3a0iheVHsGiWW9Dctcr3-60" value="" style="endArrow=none;html=1;rounded=0;labelBackgroundColor=none;strokeColor=#A8201A;fontColor=default;" parent="1" edge="1">
          <mxGeometry width="50" height="50" relative="1" as="geometry">
            <mxPoint x="636.5" y="254" as="sourcePoint" />
            <mxPoint x="656.5" y="244" as="targetPoint" />
            <Array as="points">
              <mxPoint x="636.5" y="254" />
            </Array>
          </mxGeometry>
        </mxCell>
        <mxCell id="3a0iheVHsGiWW9Dctcr3-61" value="" style="endArrow=classic;html=1;rounded=0;labelBackgroundColor=none;strokeColor=#A8201A;fontColor=default;" parent="1" edge="1">
          <mxGeometry relative="1" as="geometry">
            <mxPoint x="848.5" y="234" as="sourcePoint" />
            <mxPoint x="918.5" y="318" as="targetPoint" />
            <Array as="points">
              <mxPoint x="849.5" y="303" />
              <mxPoint x="918.5" y="303" />
            </Array>
          </mxGeometry>
        </mxCell>
        <mxCell id="3a0iheVHsGiWW9Dctcr3-62" value="&lt;font color=&quot;#0066cc&quot;&gt;&amp;nbsp; &amp;nbsp; &amp;nbsp; &amp;nbsp; reg_Data_in&lt;/font&gt;" style="edgeLabel;resizable=0;html=1;;align=left;verticalAlign=bottom;labelBackgroundColor=none;fontColor=#143642;" parent="3a0iheVHsGiWW9Dctcr3-61" connectable="0" vertex="1">
          <mxGeometry x="-1" relative="1" as="geometry">
            <mxPoint x="-23" y="93" as="offset" />
          </mxGeometry>
        </mxCell>
        <mxCell id="3a0iheVHsGiWW9Dctcr3-63" value="" style="endArrow=none;html=1;rounded=0;labelBackgroundColor=none;strokeColor=#A8201A;fontColor=default;" parent="1" edge="1">
          <mxGeometry width="50" height="50" relative="1" as="geometry">
            <mxPoint x="838.5" y="254" as="sourcePoint" />
            <mxPoint x="858.5" y="244" as="targetPoint" />
            <Array as="points">
              <mxPoint x="838.5" y="254" />
            </Array>
          </mxGeometry>
        </mxCell>
        <mxCell id="3a0iheVHsGiWW9Dctcr3-64" value="" style="endArrow=classic;html=1;rounded=0;labelBackgroundColor=none;strokeColor=#A8201A;fontColor=default;" parent="1" edge="1">
          <mxGeometry relative="1" as="geometry">
            <mxPoint x="1046.5" y="234" as="sourcePoint" />
            <mxPoint x="1026.5" y="318" as="targetPoint" />
            <Array as="points">
              <mxPoint x="1046.5" y="306" />
              <mxPoint x="1026.5" y="306" />
            </Array>
          </mxGeometry>
        </mxCell>
        <mxCell id="3a0iheVHsGiWW9Dctcr3-65" value="&lt;font color=&quot;#0066cc&quot;&gt;&amp;nbsp; &amp;nbsp; &amp;nbsp; &amp;nbsp; reg_Data_in&lt;/font&gt;" style="edgeLabel;resizable=0;html=1;;align=left;verticalAlign=bottom;labelBackgroundColor=none;fontColor=#143642;" parent="3a0iheVHsGiWW9Dctcr3-64" connectable="0" vertex="1">
          <mxGeometry x="-1" relative="1" as="geometry">
            <mxPoint x="-38" y="93" as="offset" />
          </mxGeometry>
        </mxCell>
        <mxCell id="3a0iheVHsGiWW9Dctcr3-66" value="" style="endArrow=none;html=1;rounded=0;labelBackgroundColor=none;strokeColor=#A8201A;fontColor=default;" parent="1" edge="1">
          <mxGeometry width="50" height="50" relative="1" as="geometry">
            <mxPoint x="1036.5" y="254" as="sourcePoint" />
            <mxPoint x="1056.5" y="244" as="targetPoint" />
            <Array as="points">
              <mxPoint x="1036.5" y="254" />
            </Array>
          </mxGeometry>
        </mxCell>
        <mxCell id="3a0iheVHsGiWW9Dctcr3-69" value="" style="endArrow=none;html=1;rounded=0;labelBackgroundColor=none;strokeColor=#A8201A;fontColor=default;" parent="1" edge="1">
          <mxGeometry width="50" height="50" relative="1" as="geometry">
            <mxPoint x="1236.5" y="254" as="sourcePoint" />
            <mxPoint x="1256.5" y="244" as="targetPoint" />
            <Array as="points">
              <mxPoint x="1236.5" y="254" />
            </Array>
          </mxGeometry>
        </mxCell>
        <mxCell id="3a0iheVHsGiWW9Dctcr3-70" value="" style="shape=trapezoid;perimeter=trapezoidPerimeter;whiteSpace=wrap;html=1;fixedSize=1;fillColor=#FAE5C7;strokeColor=#0F8B8D;rotation=-180;labelBackgroundColor=none;fontColor=#143642;" parent="1" vertex="1">
          <mxGeometry x="646.5" y="144" width="100" height="20" as="geometry" />
        </mxCell>
        <mxCell id="3a0iheVHsGiWW9Dctcr3-71" value="" style="endArrow=classic;html=1;rounded=0;labelBackgroundColor=none;strokeColor=#A8201A;fontColor=default;" parent="1" edge="1">
          <mxGeometry relative="1" as="geometry">
            <mxPoint x="676.5" y="104" as="sourcePoint" />
            <mxPoint x="676.5" y="144" as="targetPoint" />
            <Array as="points" />
          </mxGeometry>
        </mxCell>
        <mxCell id="3a0iheVHsGiWW9Dctcr3-72" value="&lt;font color=&quot;#0066cc&quot;&gt;&amp;nbsp; &amp;nbsp; &amp;nbsp; &amp;nbsp; reg_Data&lt;/font&gt;" style="edgeLabel;resizable=0;html=1;;align=left;verticalAlign=bottom;labelBackgroundColor=none;fontColor=#143642;" parent="3a0iheVHsGiWW9Dctcr3-71" connectable="0" vertex="1">
          <mxGeometry x="-1" relative="1" as="geometry">
            <mxPoint x="-50" as="offset" />
          </mxGeometry>
        </mxCell>
        <mxCell id="3a0iheVHsGiWW9Dctcr3-73" value="" style="endArrow=none;html=1;rounded=0;labelBackgroundColor=none;strokeColor=#A8201A;fontColor=default;" parent="1" edge="1">
          <mxGeometry width="50" height="50" relative="1" as="geometry">
            <mxPoint x="666.5" y="124" as="sourcePoint" />
            <mxPoint x="685.5" y="114" as="targetPoint" />
            <Array as="points">
              <mxPoint x="666.5" y="124" />
            </Array>
          </mxGeometry>
        </mxCell>
        <mxCell id="3a0iheVHsGiWW9Dctcr3-74" value="" style="endArrow=classic;html=1;rounded=0;labelBackgroundColor=none;strokeColor=#A8201A;fontColor=default;entryX=0.5;entryY=0;entryDx=0;entryDy=0;" parent="1" edge="1">
          <mxGeometry relative="1" as="geometry">
            <mxPoint x="716.5" y="104.01999999999998" as="sourcePoint" />
            <mxPoint x="716.5" y="144" as="targetPoint" />
            <Array as="points">
              <mxPoint x="716.5" y="104.01999999999998" />
            </Array>
          </mxGeometry>
        </mxCell>
        <mxCell id="3a0iheVHsGiWW9Dctcr3-75" value="&lt;font color=&quot;#0066cc&quot;&gt;32bit input&lt;/font&gt;" style="edgeLabel;resizable=0;html=1;;align=left;verticalAlign=bottom;labelBackgroundColor=none;fontColor=#143642;" parent="3a0iheVHsGiWW9Dctcr3-74" connectable="0" vertex="1">
          <mxGeometry x="-1" relative="1" as="geometry">
            <mxPoint x="-10" as="offset" />
          </mxGeometry>
        </mxCell>
        <mxCell id="3a0iheVHsGiWW9Dctcr3-76" value="" style="endArrow=none;html=1;rounded=0;labelBackgroundColor=none;strokeColor=#A8201A;fontColor=default;" parent="1" edge="1">
          <mxGeometry width="50" height="50" relative="1" as="geometry">
            <mxPoint x="706.5" y="124" as="sourcePoint" />
            <mxPoint x="725.5" y="114" as="targetPoint" />
            <Array as="points">
              <mxPoint x="706.5" y="124" />
            </Array>
          </mxGeometry>
        </mxCell>
        <mxCell id="3a0iheVHsGiWW9Dctcr3-85" value="" style="endArrow=classic;html=1;rounded=0;labelBackgroundColor=none;strokeColor=#A8201A;fontColor=default;" parent="1" edge="1">
          <mxGeometry relative="1" as="geometry">
            <mxPoint x="695.9999999999999" y="163.9999999999999" as="sourcePoint" />
            <mxPoint x="696.18" y="185.45" as="targetPoint" />
            <Array as="points" />
          </mxGeometry>
        </mxCell>
        <mxCell id="3a0iheVHsGiWW9Dctcr3-86" value="&lt;div style=&quot;text-align: center;&quot;&gt;&lt;span style=&quot;background-color: initial;&quot;&gt;&lt;font style=&quot;font-size: 12px;&quot; color=&quot;#143642&quot;&gt;Mux&lt;/font&gt;&lt;/span&gt;&lt;/div&gt;" style="text;whiteSpace=wrap;html=1;labelBackgroundColor=none;fontColor=#143642;" parent="1" vertex="1">
          <mxGeometry x="681.5" y="139" width="30" height="20" as="geometry" />
        </mxCell>
        <mxCell id="3a0iheVHsGiWW9Dctcr3-87" value="&lt;font style=&quot;font-size: 18px;&quot;&gt;Register&lt;/font&gt;" style="swimlane;whiteSpace=wrap;html=1;fillColor=#FAE5C7;strokeColor=#0F8B8D;labelBackgroundColor=none;fontColor=#143642;" parent="1" vertex="1">
          <mxGeometry x="555.5" y="54" width="841" height="345" as="geometry" />
        </mxCell>
        <mxCell id="3a0iheVHsGiWW9Dctcr3-83" value="" style="endArrow=classic;html=1;rounded=0;labelBackgroundColor=none;strokeColor=#A8201A;fontColor=default;" parent="3a0iheVHsGiWW9Dctcr3-87" edge="1">
          <mxGeometry relative="1" as="geometry">
            <mxPoint x="23" y="105" as="sourcePoint" />
            <mxPoint x="103" y="105" as="targetPoint" />
            <Array as="points">
              <mxPoint x="23" y="105" />
            </Array>
          </mxGeometry>
        </mxCell>
        <mxCell id="3a0iheVHsGiWW9Dctcr3-84" value="&lt;font color=&quot;#0066cc&quot;&gt;ready_flag I&lt;/font&gt;" style="edgeLabel;resizable=0;html=1;;align=left;verticalAlign=bottom;labelBackgroundColor=none;fontColor=#143642;" parent="3a0iheVHsGiWW9Dctcr3-83" connectable="0" vertex="1">
          <mxGeometry x="-1" relative="1" as="geometry">
            <mxPoint x="3" as="offset" />
          </mxGeometry>
        </mxCell>
        <mxCell id="lHgVhqsrsGuxtCrdfK7c-1" value="" style="endArrow=classic;html=1;rounded=0;labelBackgroundColor=none;strokeColor=#A8201A;fontColor=default;" parent="3a0iheVHsGiWW9Dctcr3-87" edge="1">
          <mxGeometry relative="1" as="geometry">
            <mxPoint x="410" y="207.08999999999992" as="sourcePoint" />
            <mxPoint x="410" y="179.99999999999997" as="targetPoint" />
            <Array as="points" />
          </mxGeometry>
        </mxCell>
        <mxCell id="lHgVhqsrsGuxtCrdfK7c-2" value="&lt;font color=&quot;#0066cc&quot;&gt;enable 2&lt;/font&gt;&lt;div&gt;&lt;font color=&quot;#0066cc&quot;&gt;&amp;nbsp; &amp;nbsp; &amp;nbsp; L&lt;/font&gt;&lt;/div&gt;" style="edgeLabel;resizable=0;html=1;;align=left;verticalAlign=bottom;rotation=0;labelBackgroundColor=none;fontColor=#143642;" parent="lHgVhqsrsGuxtCrdfK7c-1" connectable="0" vertex="1">
          <mxGeometry x="-1" relative="1" as="geometry">
            <mxPoint x="-24" y="27" as="offset" />
          </mxGeometry>
        </mxCell>
        <mxCell id="3a0iheVHsGiWW9Dctcr3-77" value="" style="endArrow=classic;html=1;rounded=0;labelBackgroundColor=none;strokeColor=#A8201A;fontColor=default;" parent="3a0iheVHsGiWW9Dctcr3-87" edge="1">
          <mxGeometry relative="1" as="geometry">
            <mxPoint x="353" y="207.08999999999992" as="sourcePoint" />
            <mxPoint x="353" y="179.99999999999997" as="targetPoint" />
            <Array as="points" />
          </mxGeometry>
        </mxCell>
        <mxCell id="3a0iheVHsGiWW9Dctcr3-78" value="&lt;font color=&quot;#0066cc&quot;&gt;enable 2&lt;/font&gt;&lt;div&gt;&lt;font color=&quot;#0066cc&quot;&gt;&amp;nbsp; &amp;nbsp; &amp;nbsp; H&lt;/font&gt;&lt;/div&gt;" style="edgeLabel;resizable=0;html=1;;align=left;verticalAlign=bottom;rotation=0;labelBackgroundColor=none;fontColor=#143642;" parent="3a0iheVHsGiWW9Dctcr3-77" connectable="0" vertex="1">
          <mxGeometry x="-1" relative="1" as="geometry">
            <mxPoint x="-21" y="27" as="offset" />
          </mxGeometry>
        </mxCell>
        <mxCell id="3a0iheVHsGiWW9Dctcr3-79" value="" style="endArrow=classic;html=1;rounded=0;labelBackgroundColor=none;strokeColor=#A8201A;fontColor=default;" parent="3a0iheVHsGiWW9Dctcr3-87" edge="1">
          <mxGeometry relative="1" as="geometry">
            <mxPoint x="542" y="207.08999999999992" as="sourcePoint" />
            <mxPoint x="542" y="179.99999999999997" as="targetPoint" />
            <Array as="points" />
          </mxGeometry>
        </mxCell>
        <mxCell id="3a0iheVHsGiWW9Dctcr3-80" value="&lt;font color=&quot;#0066cc&quot;&gt;enable 3&lt;/font&gt;&lt;div&gt;&lt;font color=&quot;#0066cc&quot;&gt;&amp;nbsp; &amp;nbsp; &amp;nbsp; H&lt;/font&gt;&lt;/div&gt;" style="edgeLabel;resizable=0;html=1;;align=left;verticalAlign=bottom;rotation=0;labelBackgroundColor=none;fontColor=#143642;" parent="3a0iheVHsGiWW9Dctcr3-79" connectable="0" vertex="1">
          <mxGeometry x="-1" relative="1" as="geometry">
            <mxPoint x="-21" y="30" as="offset" />
          </mxGeometry>
        </mxCell>
        <mxCell id="lHgVhqsrsGuxtCrdfK7c-3" value="" style="endArrow=classic;html=1;rounded=0;labelBackgroundColor=none;strokeColor=#A8201A;fontColor=default;" parent="3a0iheVHsGiWW9Dctcr3-87" edge="1">
          <mxGeometry relative="1" as="geometry">
            <mxPoint x="602" y="207.08999999999992" as="sourcePoint" />
            <mxPoint x="602" y="179.99999999999997" as="targetPoint" />
            <Array as="points" />
          </mxGeometry>
        </mxCell>
        <mxCell id="lHgVhqsrsGuxtCrdfK7c-4" value="&lt;font color=&quot;#0066cc&quot;&gt;enable 3&lt;/font&gt;&lt;div&gt;&lt;font color=&quot;#0066cc&quot;&gt;&amp;nbsp; &amp;nbsp; &amp;nbsp; L&lt;/font&gt;&lt;/div&gt;" style="edgeLabel;resizable=0;html=1;;align=left;verticalAlign=bottom;rotation=0;labelBackgroundColor=none;fontColor=#143642;" parent="lHgVhqsrsGuxtCrdfK7c-3" connectable="0" vertex="1">
          <mxGeometry x="-1" relative="1" as="geometry">
            <mxPoint x="-22" y="30" as="offset" />
          </mxGeometry>
        </mxCell>
        <mxCell id="3a0iheVHsGiWW9Dctcr3-81" value="" style="endArrow=classic;html=1;rounded=0;labelBackgroundColor=none;strokeColor=#A8201A;fontColor=default;" parent="3a0iheVHsGiWW9Dctcr3-87" edge="1">
          <mxGeometry relative="1" as="geometry">
            <mxPoint x="743" y="207.08999999999992" as="sourcePoint" />
            <mxPoint x="743" y="179.99999999999997" as="targetPoint" />
            <Array as="points" />
          </mxGeometry>
        </mxCell>
        <mxCell id="3a0iheVHsGiWW9Dctcr3-82" value="&lt;font color=&quot;#0066cc&quot;&gt;enable 4&lt;/font&gt;&lt;div&gt;&lt;font color=&quot;#0066cc&quot;&gt;&amp;nbsp; &amp;nbsp; &amp;nbsp; H&lt;/font&gt;&lt;/div&gt;" style="edgeLabel;resizable=0;html=1;;align=left;verticalAlign=bottom;rotation=0;labelBackgroundColor=none;fontColor=#143642;" parent="3a0iheVHsGiWW9Dctcr3-81" connectable="0" vertex="1">
          <mxGeometry x="-1" relative="1" as="geometry">
            <mxPoint x="-22" y="30" as="offset" />
          </mxGeometry>
        </mxCell>
        <mxCell id="lHgVhqsrsGuxtCrdfK7c-5" value="" style="endArrow=classic;html=1;rounded=0;labelBackgroundColor=none;strokeColor=#A8201A;fontColor=default;" parent="3a0iheVHsGiWW9Dctcr3-87" edge="1">
          <mxGeometry relative="1" as="geometry">
            <mxPoint x="800" y="207.08999999999992" as="sourcePoint" />
            <mxPoint x="800" y="179.99999999999997" as="targetPoint" />
            <Array as="points" />
          </mxGeometry>
        </mxCell>
        <mxCell id="lHgVhqsrsGuxtCrdfK7c-6" value="&lt;font color=&quot;#0066cc&quot;&gt;enable 4&lt;/font&gt;&lt;div&gt;&lt;font color=&quot;#0066cc&quot;&gt;&amp;nbsp; &amp;nbsp; &amp;nbsp; L&lt;/font&gt;&lt;/div&gt;" style="edgeLabel;resizable=0;html=1;;align=left;verticalAlign=bottom;rotation=0;labelBackgroundColor=none;fontColor=#143642;" parent="lHgVhqsrsGuxtCrdfK7c-5" connectable="0" vertex="1">
          <mxGeometry x="-1" relative="1" as="geometry">
            <mxPoint x="-22" y="30" as="offset" />
          </mxGeometry>
        </mxCell>
        <mxCell id="lHgVhqsrsGuxtCrdfK7c-8" value="" style="endArrow=classic;html=1;rounded=0;labelBackgroundColor=none;strokeColor=#A8201A;fontColor=default;" parent="3a0iheVHsGiWW9Dctcr3-87" source="lHgVhqsrsGuxtCrdfK7c-13" edge="1">
          <mxGeometry relative="1" as="geometry">
            <mxPoint x="206" y="197.99999999999997" as="sourcePoint" />
            <mxPoint x="205.81999999999994" y="181.45999999999995" as="targetPoint" />
            <Array as="points" />
          </mxGeometry>
        </mxCell>
        <mxCell id="lHgVhqsrsGuxtCrdfK7c-10" value="&lt;font style=&quot;font-size: 6px;&quot; color=&quot;#0066cc&quot;&gt;ready_flag II&lt;/font&gt;" style="edgeLabel;resizable=0;html=1;;align=left;verticalAlign=bottom;labelBackgroundColor=none;fontColor=#143642;" parent="3a0iheVHsGiWW9Dctcr3-87" connectable="0" vertex="1">
          <mxGeometry x="212" y="233.99999999999997" as="geometry" />
        </mxCell>
        <mxCell id="lHgVhqsrsGuxtCrdfK7c-11" value="" style="endArrow=classic;html=1;rounded=0;labelBackgroundColor=none;strokeColor=#A8201A;fontColor=default;" parent="3a0iheVHsGiWW9Dctcr3-87" target="lHgVhqsrsGuxtCrdfK7c-13" edge="1">
          <mxGeometry relative="1" as="geometry">
            <mxPoint x="206" y="197.99999999999997" as="sourcePoint" />
            <mxPoint x="205.81999999999994" y="181.45999999999995" as="targetPoint" />
            <Array as="points" />
          </mxGeometry>
        </mxCell>
        <mxCell id="lHgVhqsrsGuxtCrdfK7c-12" value="&lt;font color=&quot;#0066cc&quot;&gt;enable 1&lt;/font&gt;&lt;div&gt;&lt;font color=&quot;#0066cc&quot;&gt;&amp;nbsp; &amp;nbsp; &amp;nbsp; &amp;nbsp;L&lt;/font&gt;&lt;/div&gt;" style="edgeLabel;resizable=0;html=1;;align=left;verticalAlign=bottom;rotation=0;labelBackgroundColor=none;fontColor=#143642;" parent="lHgVhqsrsGuxtCrdfK7c-11" connectable="0" vertex="1">
          <mxGeometry x="-1" relative="1" as="geometry">
            <mxPoint x="-20" y="69" as="offset" />
          </mxGeometry>
        </mxCell>
        <mxCell id="lHgVhqsrsGuxtCrdfK7c-13" value="" style="verticalLabelPosition=bottom;shadow=0;dashed=0;align=center;html=1;verticalAlign=top;shape=mxgraph.electrical.logic_gates.logic_gate;operation=or;fillColor=#fff2cc;strokeColor=#d6b656;fillStyle=zigzag-line;rotation=-90;" parent="3a0iheVHsGiWW9Dctcr3-87" vertex="1">
          <mxGeometry x="191" y="203.99999999999997" width="30" height="18" as="geometry" />
        </mxCell>
        <mxCell id="3-UA-4GQZJu9NX7A7xm6-4" value="&lt;font style=&quot;font-size: 6px;&quot; color=&quot;#0066cc&quot;&gt;ready_flag I&lt;/font&gt;" style="edgeLabel;resizable=0;html=1;;align=left;verticalAlign=bottom;labelBackgroundColor=none;fontColor=#143642;" parent="3a0iheVHsGiWW9Dctcr3-87" connectable="0" vertex="1">
          <mxGeometry x="92" y="234" as="geometry" />
        </mxCell>
        <mxCell id="Dbq3fYh9pfuItLBvz8BK-1" value="&lt;font style=&quot;font-size: 6px;&quot; color=&quot;#0066cc&quot;&gt;ready_flag II&lt;/font&gt;" style="edgeLabel;resizable=0;html=1;;align=left;verticalAlign=bottom;labelBackgroundColor=none;fontColor=#143642;" parent="3a0iheVHsGiWW9Dctcr3-87" connectable="0" vertex="1">
          <mxGeometry x="137" y="234" as="geometry" />
        </mxCell>
        <mxCell id="lHgVhqsrsGuxtCrdfK7c-14" value="&lt;font style=&quot;font-size: 6px;&quot; color=&quot;#0066cc&quot;&gt;ready_flag I&lt;/font&gt;" style="edgeLabel;resizable=0;html=1;;align=left;verticalAlign=bottom;labelBackgroundColor=none;fontColor=#143642;rotation=-15;" parent="3a0iheVHsGiWW9Dctcr3-87" connectable="0" vertex="1">
          <mxGeometry x="170" y="243" as="geometry" />
        </mxCell>
        <mxCell id="3-UA-4GQZJu9NX7A7xm6-2" value="" style="endArrow=classic;html=1;rounded=0;labelBackgroundColor=none;strokeColor=#A8201A;fontColor=default;" parent="3a0iheVHsGiWW9Dctcr3-87" target="3-UA-4GQZJu9NX7A7xm6-1" edge="1">
          <mxGeometry relative="1" as="geometry">
            <mxPoint x="131" y="198" as="sourcePoint" />
            <mxPoint x="130.81999999999994" y="181.45999999999998" as="targetPoint" />
            <Array as="points" />
          </mxGeometry>
        </mxCell>
        <mxCell id="3-UA-4GQZJu9NX7A7xm6-3" value="&lt;font color=&quot;#0066cc&quot;&gt;enable 1&lt;/font&gt;&lt;div&gt;&lt;font color=&quot;#0066cc&quot;&gt;&amp;nbsp; &amp;nbsp; &amp;nbsp; H&lt;/font&gt;&lt;/div&gt;" style="edgeLabel;resizable=0;html=1;;align=left;verticalAlign=bottom;rotation=0;labelBackgroundColor=none;fontColor=#143642;" parent="3-UA-4GQZJu9NX7A7xm6-2" connectable="0" vertex="1">
          <mxGeometry x="-1" relative="1" as="geometry">
            <mxPoint x="-23" y="69" as="offset" />
          </mxGeometry>
        </mxCell>
        <mxCell id="3-UA-4GQZJu9NX7A7xm6-1" value="" style="verticalLabelPosition=bottom;shadow=0;dashed=0;align=center;html=1;verticalAlign=top;shape=mxgraph.electrical.logic_gates.logic_gate;operation=or;fillColor=#fff2cc;strokeColor=#d6b656;fillStyle=zigzag-line;rotation=-90;" parent="3a0iheVHsGiWW9Dctcr3-87" vertex="1">
          <mxGeometry x="116" y="204" width="30" height="18" as="geometry" />
        </mxCell>
        <mxCell id="3a0iheVHsGiWW9Dctcr3-47" value="" style="endArrow=classic;html=1;rounded=0;labelBackgroundColor=none;strokeColor=#A8201A;fontColor=default;" parent="3a0iheVHsGiWW9Dctcr3-87" edge="1">
          <mxGeometry relative="1" as="geometry">
            <mxPoint x="130.80143310082428" y="198" as="sourcePoint" />
            <mxPoint x="131" y="181" as="targetPoint" />
            <Array as="points" />
          </mxGeometry>
        </mxCell>
        <mxCell id="lHgVhqsrsGuxtCrdfK7c-30" value="" style="shadow=0;dashed=0;align=center;html=1;strokeWidth=1;shape=mxgraph.electrical.abstract.mux2;whiteSpace=wrap;rotation=90;points=[[0,0.24490361461133692,0,0,3],[0,0.7347108438340108,0,0,3],[0.375,1,0,10,0],[1,0.5,0,0,-5]];fillColor=#FAF4CD;strokeColor=#b46504;" parent="3a0iheVHsGiWW9Dctcr3-87" vertex="1">
          <mxGeometry x="400.93" y="-97.55" width="57.77" height="784.87" as="geometry" />
        </mxCell>
        <mxCell id="lHgVhqsrsGuxtCrdfK7c-33" value="&lt;font color=&quot;#0066cc&quot;&gt;reg_Data_in_sel&lt;/font&gt;" style="edgeLabel;resizable=0;html=1;;align=left;verticalAlign=bottom;labelBackgroundColor=none;fontColor=#143642;" parent="3a0iheVHsGiWW9Dctcr3-87" connectable="0" vertex="1">
          <mxGeometry x="12.000000000000227" y="321" as="geometry" />
        </mxCell>
        <mxCell id="lHgVhqsrsGuxtCrdfK7c-34" value="" style="endArrow=none;html=1;rounded=0;" parent="3a0iheVHsGiWW9Dctcr3-87" edge="1">
          <mxGeometry width="50" height="50" relative="1" as="geometry">
            <mxPoint x="363" y="276" as="sourcePoint" />
            <mxPoint x="363" y="264" as="targetPoint" />
          </mxGeometry>
        </mxCell>
        <mxCell id="lHgVhqsrsGuxtCrdfK7c-35" value="" style="endArrow=none;html=1;rounded=0;" parent="3a0iheVHsGiWW9Dctcr3-87" edge="1">
          <mxGeometry width="50" height="50" relative="1" as="geometry">
            <mxPoint x="471" y="276" as="sourcePoint" />
            <mxPoint x="471" y="264" as="targetPoint" />
          </mxGeometry>
        </mxCell>
        <mxCell id="3a0iheVHsGiWW9Dctcr3-67" value="" style="endArrow=classic;html=1;rounded=0;labelBackgroundColor=none;strokeColor=#A8201A;fontColor=default;entryX=0;entryY=0.24490361461133692;entryDx=0;entryDy=3;entryPerimeter=0;" parent="3a0iheVHsGiWW9Dctcr3-87" target="lHgVhqsrsGuxtCrdfK7c-30" edge="1">
          <mxGeometry relative="1" as="geometry">
            <mxPoint x="691" y="180" as="sourcePoint" />
            <mxPoint x="615" y="255" as="targetPoint" />
            <Array as="points">
              <mxPoint x="691" y="252" />
              <mxPoint x="627" y="252" />
            </Array>
          </mxGeometry>
        </mxCell>
        <mxCell id="3a0iheVHsGiWW9Dctcr3-68" value="&lt;font color=&quot;#0066cc&quot;&gt;&amp;nbsp; &amp;nbsp; &amp;nbsp; &amp;nbsp; reg_Data_in&lt;/font&gt;" style="edgeLabel;resizable=0;html=1;;align=left;verticalAlign=bottom;labelBackgroundColor=none;fontColor=#143642;" parent="3a0iheVHsGiWW9Dctcr3-67" connectable="0" vertex="1">
          <mxGeometry x="-1" relative="1" as="geometry">
            <mxPoint x="-82" y="90" as="offset" />
          </mxGeometry>
        </mxCell>
        <mxCell id="lHgVhqsrsGuxtCrdfK7c-36" value="&lt;font color=&quot;#0066cc&quot;&gt;&amp;nbsp; &amp;nbsp; &amp;nbsp; &amp;nbsp; reg_Data_in&lt;/font&gt;" style="edgeLabel;resizable=0;html=1;;align=left;verticalAlign=bottom;labelBackgroundColor=none;fontColor=#143642;" parent="3a0iheVHsGiWW9Dctcr3-87" connectable="0" vertex="1">
          <mxGeometry x="381.0000000000002" y="339" as="geometry" />
        </mxCell>
        <mxCell id="lHgVhqsrsGuxtCrdfK7c-37" value="&lt;div style=&quot;text-align: center;&quot;&gt;&lt;span style=&quot;background-color: initial;&quot;&gt;&lt;font style=&quot;font-size: 18px;&quot; color=&quot;#143642&quot;&gt;Mux&lt;/font&gt;&lt;/span&gt;&lt;/div&gt;" style="text;whiteSpace=wrap;html=1;labelBackgroundColor=none;fontColor=#143642;" parent="3a0iheVHsGiWW9Dctcr3-87" vertex="1">
          <mxGeometry x="411" y="276" width="30" height="20" as="geometry" />
        </mxCell>
        <mxCell id="3a0iheVHsGiWW9Dctcr3-97" value="" style="pointerEvents=1;verticalLabelPosition=bottom;shadow=0;dashed=0;align=center;html=1;verticalAlign=top;shape=mxgraph.electrical.signal_sources.source;aspect=fixed;points=[[0.5,0,0],[1,0.5,0],[0.5,1,0],[0,0.5,0]];elSignalType=square;strokeColor=#0F8B8D;fontColor=#143642;fillColor=#FAE5C7;" parent="1" vertex="1">
          <mxGeometry x="946" y="1040" width="60" height="60" as="geometry" />
        </mxCell>
        <mxCell id="TzWfCmJ9SfIkoEFI22u--91" value="&lt;font size=&quot;1&quot; color=&quot;#0066cc&quot;&gt;&lt;b style=&quot;font-size: 16px;&quot;&gt;Clock&lt;/b&gt;&lt;/font&gt;" style="edgeLabel;resizable=0;html=1;;align=center;verticalAlign=bottom;labelBackgroundColor=none;fontColor=#143642;" parent="1" connectable="0" vertex="1">
          <mxGeometry x="985" y="933" as="geometry">
            <mxPoint x="-13" y="194" as="offset" />
          </mxGeometry>
        </mxCell>
      </root>
    </mxGraphModel>
  </diagram>
</mxfile>
